<svg width="116" height="91" viewBox="0 0 116 91" fill="none" xmlns="http://www.w3.org/2000/svg">
<path d="M70.8836 90.0537C95.5792 90.0537 115.599 70.034 115.599 45.3384C115.599 20.6428 95.5792 0.623047 70.8836 0.623047C46.1881 0.623047 26.1683 20.6428 26.1683 45.3384C26.1683 70.034 46.1881 90.0537 70.8836 90.0537Z" fill="#C1C1C1"/>
<path d="M84.5249 23.9199C93.4715 23.229 94.2333 14.2646 94.2333 14.2646C94.2333 14.2646 94.2333 23.1227 103.322 23.9553C103.322 23.9553 95.6329 23.9553 94.2333 31.4138C94.2687 31.4492 92.7451 22.8038 84.5249 23.9199Z" fill="#5500FF" stroke="black" stroke-width="1.7716" stroke-miterlimit="10"/>
<path d="M8.34605 49.3425C12.1815 49.3425 15.2907 46.2333 15.2907 42.3978C15.2907 38.5624 12.1815 35.4531 8.34605 35.4531C4.51061 35.4531 1.40137 38.5624 1.40137 42.3978C1.40137 46.2333 4.51061 49.3425 8.34605 49.3425Z" fill="#006AFF" stroke="#010102" stroke-width="1.7716" stroke-miterlimit="10"/>
<path d="M84.5073 49.3425C88.3428 49.3425 91.452 46.2333 91.452 42.3978C91.452 38.5624 88.3428 35.4531 84.5073 35.4531C80.6719 35.4531 77.5626 38.5624 77.5626 42.3978C77.5626 46.2333 80.6719 49.3425 84.5073 49.3425Z" fill="#006AFF" stroke="#010102" stroke-width="1.7716" stroke-miterlimit="10"/>
<path d="M11.8182 72.4438H81.2651C81.2651 72.4438 70.8835 89.9119 46.0811 89.9119C21.2786 89.9119 11.8182 72.4438 11.8182 72.4438Z" fill="#006AFF" stroke="#010102" stroke-width="1.7716" stroke-miterlimit="10"/>
<path d="M46.2761 80.523C67.4004 80.523 84.525 63.3984 84.525 42.2741C84.525 21.1498 67.4004 4.02515 46.2761 4.02515C25.1518 4.02515 8.0271 21.1498 8.0271 42.2741C8.0271 63.3984 25.1518 80.523 46.2761 80.523Z" fill="white" stroke="black" stroke-width="1.7716" stroke-miterlimit="10"/>
<path d="M73.4879 47.3763C73.3061 54.5267 70.3379 61.3232 65.2163 66.3163C60.0947 71.3093 53.225 74.1038 46.0723 74.1038C38.9196 74.1038 32.0499 71.3093 26.9283 66.3163C21.8067 61.3232 18.8385 54.5267 18.6567 47.3763C18.6567 32.2468 30.934 25.2844 46.0812 25.2844C61.2284 25.2844 73.4879 32.2468 73.4879 47.3763Z" fill="#49D2A4" stroke="black" stroke-width="1.7716" stroke-miterlimit="10"/>
<path d="M41.0678 53.1376C41.0678 52.3581 41.1741 51.6494 41.3867 51.0116C41.6347 50.3384 41.9713 49.7184 42.3965 49.1515C42.8217 48.5845 43.3177 48.0353 43.8846 47.5039C44.487 46.9724 45.1247 46.4409 45.798 45.9094C46.9672 44.9173 47.8707 44.0315 48.5085 43.252C49.1817 42.4371 49.5183 41.569 49.5183 40.6477C49.5183 39.4785 49.164 38.575 48.4554 37.9372C47.7467 37.264 46.6483 36.9274 45.1602 36.9274C43.7429 36.9274 42.6622 37.2994 41.9181 38.0435C41.1741 38.7876 40.802 39.8328 40.802 41.1792H32.4046C32.4046 39.6557 32.7058 38.2384 33.3081 36.9274C33.9105 35.581 34.7609 34.4117 35.8593 33.4196C36.9576 32.3921 38.2864 31.5949 39.8454 31.0279C41.4398 30.4256 43.2114 30.1244 45.1602 30.1244C47.2152 30.1244 49.04 30.3902 50.6344 30.9216C52.2289 31.4531 53.5576 32.1795 54.6205 33.1007C55.7189 34.0219 56.5339 35.1026 57.0654 36.3428C57.6323 37.5829 57.9157 38.9293 57.9157 40.382C57.9157 41.4804 57.774 42.4725 57.4905 43.3583C57.2425 44.2441 56.8882 45.059 56.4276 45.8031C56.0024 46.5118 55.5064 47.1673 54.9394 47.7696C54.3725 48.3719 53.8056 48.9211 53.2387 49.4172C52.3175 50.2321 51.5911 50.9053 51.0596 51.4368C50.5281 51.9683 50.1207 52.4112 49.8372 52.7655C49.5892 53.1198 49.4297 53.4387 49.3589 53.7222C49.288 53.9702 49.2526 54.2182 49.2526 54.4663V55.2635H41.0678V53.1376ZM45.1602 68.71C43.7429 68.71 42.5382 68.2316 41.5461 67.275C40.5894 66.2829 40.1111 65.0782 40.1111 63.6609C40.1111 62.2436 40.5894 61.0566 41.5461 60.1C42.5382 59.1079 43.7429 58.6118 45.1602 58.6118C46.5775 58.6118 47.7644 59.1079 48.7211 60.1C49.7132 61.0566 50.2093 62.2436 50.2093 63.6609C50.2093 65.0782 49.7132 66.2829 48.7211 67.275C47.7644 68.2316 46.5775 68.71 45.1602 68.71Z" fill="white"/>
<path d="M41.3867 51.0116L40.5555 50.7054L40.5507 50.7184L40.5463 50.7315L41.3867 51.0116ZM43.8846 47.5039L43.2986 46.8397L43.2885 46.8485L43.2788 46.8576L43.8846 47.5039ZM45.798 45.9094L46.3468 46.6047L46.3591 46.595L46.3711 46.5848L45.798 45.9094ZM48.5085 43.252L47.8256 42.6879L47.8229 42.6911L48.5085 43.252ZM48.4554 37.9372L47.8453 38.5794L47.8539 38.5876L47.8628 38.5956L48.4554 37.9372ZM41.9181 38.0435L42.5445 38.6698L42.5445 38.6698L41.9181 38.0435ZM40.802 41.1792V42.065H41.6878V41.1792H40.802ZM32.4046 41.1792H31.5188V42.065H32.4046V41.1792ZM33.3081 36.9274L34.1131 37.2972L34.1167 37.2891L33.3081 36.9274ZM35.8593 33.4196L36.453 34.077L36.4587 34.0718L36.4644 34.0665L35.8593 33.4196ZM39.8454 31.0279L40.1481 31.8605L40.1584 31.8566L39.8454 31.0279ZM50.6344 30.9216L50.3543 31.762L50.3543 31.762L50.6344 30.9216ZM54.6205 33.1007L54.0404 33.7701L54.0458 33.7748L54.0513 33.7794L54.6205 33.1007ZM57.0654 36.3428L56.2512 36.6917L56.2553 36.7014L56.2597 36.711L57.0654 36.3428ZM57.4905 43.3583L56.6469 43.0883L56.6419 43.1038L56.6376 43.1195L57.4905 43.3583ZM56.4276 45.8031L55.6743 45.3368L55.668 45.3474L56.4276 45.8031ZM54.9394 47.7696L55.5845 48.3767L55.5845 48.3767L54.9394 47.7696ZM53.2387 49.4172L52.6554 48.7505L52.6518 48.7537L53.2387 49.4172ZM49.8372 52.7655L49.1455 52.2122L49.1278 52.2343L49.1115 52.2576L49.8372 52.7655ZM49.3589 53.7222L50.2106 53.9655L50.2147 53.9513L50.2182 53.937L49.3589 53.7222ZM49.2526 55.2635V56.1493H50.1384V55.2635H49.2526ZM41.0678 55.2635H40.182V56.1493H41.0678V55.2635ZM41.5461 67.275L40.9085 67.8898L40.9196 67.9014L40.9312 67.9126L41.5461 67.275ZM48.7211 60.1L48.0835 60.7148L48.0946 60.7264L48.1062 60.7376L48.7211 60.1ZM48.7211 67.275L49.3475 67.9013L49.3475 67.9013L48.7211 67.275ZM41.9536 53.1376C41.9536 52.4384 42.0489 51.8261 42.227 51.2918L40.5463 50.7315C40.2992 51.4727 40.182 52.2777 40.182 53.1376H41.9536ZM42.2178 51.3179C42.4365 50.7243 42.7321 50.1802 43.1051 49.6829L41.6878 48.62C41.2104 49.2565 40.8328 49.9526 40.5555 50.7054L42.2178 51.3179ZM43.1051 49.6829C43.4966 49.1609 43.9575 48.6497 44.4905 48.1501L43.2788 46.8576C42.6779 47.421 42.1467 48.0082 41.6878 48.62L43.1051 49.6829ZM44.4707 48.1681C45.0601 47.648 45.6855 47.1268 46.3468 46.6047L45.2491 45.2142C44.564 45.755 43.9138 46.2968 43.2986 46.8397L44.4707 48.1681ZM46.3711 46.5848C47.5624 45.574 48.5097 44.6494 49.1941 43.8129L47.8229 42.6911C47.2318 43.4136 46.372 44.2606 45.2249 45.234L46.3711 46.5848ZM49.1914 43.8162C49.9754 42.8672 50.4041 41.8048 50.4041 40.6477H48.6325C48.6325 41.3332 48.3881 42.007 47.8256 42.6879L49.1914 43.8162ZM50.4041 40.6477C50.4041 39.2889 49.9845 38.1217 49.0479 37.2788L47.8628 38.5956C48.3435 39.0283 48.6325 39.6681 48.6325 40.6477H50.4041ZM49.0655 37.295C48.1241 36.4007 46.7597 36.0416 45.1602 36.0416V37.8132C46.5369 37.8132 47.3694 38.1273 47.8453 38.5794L49.0655 37.295ZM45.1602 36.0416C43.5919 36.0416 42.2531 36.4558 41.2918 37.4171L42.5445 38.6698C43.0713 38.1431 43.8939 37.8132 45.1602 37.8132V36.0416ZM41.2918 37.4171C40.3385 38.3704 39.9162 39.6667 39.9162 41.1792H41.6878C41.6878 39.9989 42.0096 39.2048 42.5445 38.6698L41.2918 37.4171ZM40.802 40.2934H32.4046V42.065H40.802V40.2934ZM33.2904 41.1792C33.2904 39.776 33.567 38.4857 34.1131 37.2972L32.5032 36.5576C31.8446 37.991 31.5188 39.5353 31.5188 41.1792H33.2904ZM34.1167 37.2891C34.6686 36.0555 35.4457 34.9868 36.453 34.077L35.2655 32.7622C34.0761 33.8366 33.1524 35.1064 32.4996 36.5656L34.1167 37.2891ZM36.4644 34.0665C37.4669 33.1286 38.6898 32.3907 40.1481 31.8604L39.5426 30.1955C37.883 30.799 36.4484 31.6555 35.2541 32.7727L36.4644 34.0665ZM40.1584 31.8566C41.6396 31.297 43.3032 31.0102 45.1602 31.0102V29.2386C43.1196 29.2386 41.2401 29.5541 39.5323 30.1993L40.1584 31.8566ZM45.1602 31.0102C47.1405 31.0102 48.8677 31.2665 50.3543 31.762L50.9146 30.0813C49.2123 29.5139 47.29 29.2386 45.1602 29.2386V31.0102ZM50.3543 31.762C51.8596 32.2637 53.0806 32.9383 54.0404 33.7701L55.2007 32.4313C54.0346 31.4207 52.5982 30.6425 50.9146 30.0813L50.3543 31.762ZM54.0513 33.7794C55.0502 34.6172 55.7778 35.5871 56.2512 36.6917L57.8795 35.9938C57.29 34.6182 56.3877 33.4267 55.1898 32.422L54.0513 33.7794ZM56.2597 36.711C56.7704 37.8281 57.0299 39.0479 57.0299 40.382H58.8015C58.8015 38.8107 58.4941 37.3376 57.871 35.9745L56.2597 36.711ZM57.0299 40.382C57.0299 41.4049 56.8979 42.3039 56.6469 43.0883L58.3342 43.6283C58.6501 42.6411 58.8015 41.5559 58.8015 40.382H57.0299ZM56.6376 43.1195C56.4108 43.9293 56.0891 44.6671 55.6744 45.3369L57.1808 46.2694C57.6873 45.451 58.0742 44.559 58.3435 43.5971L56.6376 43.1195ZM55.668 45.3474C55.2755 46.0016 54.8179 46.6063 54.2944 47.1625L55.5845 48.3767C56.1948 47.7282 56.7293 47.022 57.1872 46.2589L55.668 45.3474ZM54.2944 47.1625C53.7452 47.746 53.1988 48.2751 52.6554 48.7506L53.822 50.0838C54.4124 49.5672 54.9998 48.9979 55.5845 48.3767L54.2944 47.1625ZM52.6518 48.7537C51.7244 49.5742 50.9829 50.2608 50.4333 50.8105L51.686 52.0632C52.1993 51.5499 52.9106 50.8901 53.8256 50.0807L52.6518 48.7537ZM50.4333 50.8105C49.8915 51.3522 49.4583 51.8212 49.1455 52.2122L50.5289 53.3189C50.7831 53.0012 51.1647 52.5844 51.686 52.0632L50.4333 50.8105ZM49.1115 52.2576C48.8284 52.662 48.6061 53.0812 48.4995 53.5074L50.2182 53.937C50.2534 53.7963 50.3499 53.5777 50.5629 53.2735L49.1115 52.2576ZM48.5072 53.4788C48.4146 53.8028 48.3668 54.1327 48.3668 54.4663H50.1384C50.1384 54.3038 50.1614 54.1376 50.2106 53.9655L48.5072 53.4788ZM48.3668 54.4663V55.2635H50.1384V54.4663H48.3668ZM49.2526 54.3777H41.0678V56.1493H49.2526V54.3777ZM41.9536 55.2635V53.1376H40.182V55.2635H41.9536ZM45.1602 67.8242C43.965 67.8242 42.9828 67.4298 42.161 66.6373L40.9312 67.9126C42.0936 69.0334 43.5208 69.5958 45.1602 69.5958V67.8242ZM42.1837 66.6601C41.3912 65.8382 40.9969 64.8561 40.9969 63.6609H39.2253C39.2253 65.3003 39.7876 66.7275 40.9085 67.8898L42.1837 66.6601ZM40.9969 63.6609C40.9969 62.4661 41.3905 61.5083 42.1725 60.7263L40.9197 59.4736C39.7884 60.605 39.2253 62.0211 39.2253 63.6609H40.9969ZM42.1725 60.7263C42.9966 59.9022 43.9751 59.4976 45.1602 59.4976V57.726C43.5106 57.726 42.0799 58.3135 40.9197 59.4736L42.1725 60.7263ZM45.1602 59.4976C46.3446 59.4976 47.299 59.9013 48.0835 60.7148L49.3587 59.4851C48.2299 58.3144 46.8103 57.726 45.1602 57.726V59.4976ZM48.1062 60.7376C48.9198 61.5221 49.3234 62.4765 49.3234 63.6609H51.0951C51.0951 62.0108 50.5067 60.5912 49.336 59.4623L48.1062 60.7376ZM49.3234 63.6609C49.3234 64.8459 48.9188 65.8245 48.0947 66.6486L49.3475 67.9013C50.5076 66.7412 51.0951 65.3104 51.0951 63.6609H49.3234ZM48.0947 66.6486C47.3128 67.4306 46.355 67.8242 45.1602 67.8242V69.5958C46.7999 69.5958 48.2161 69.0327 49.3475 67.9013L48.0947 66.6486Z" fill="black"/>
</svg>
