<svg width="29" height="29" viewBox="0 0 29 29" fill="none" xmlns="http://www.w3.org/2000/svg">
<path d="M27.0093 13.5136C28.3467 13.7824 28.3467 15.6942 27.0093 15.963L18.0926 17.7557C17.6019 17.8543 17.2175 18.2362 17.1157 18.7262L15.2737 27.5906C14.998 28.9174 13.1032 28.9174 12.8275 27.5906L10.9855 18.7262C10.8837 18.2362 10.4992 17.8543 10.0086 17.7557L1.09185 15.963C-0.245492 15.6941 -0.245488 13.7824 1.09185 13.5136L10.0086 11.7209C10.4992 11.6223 10.8837 11.2404 10.9855 10.7504L12.8275 1.88595C13.1032 0.559198 14.998 0.559198 15.2737 1.88595L17.1157 10.7504C17.2175 11.2404 17.6019 11.6223 18.0926 11.7209L27.0093 13.5136Z" fill="#006AFF"/>
</svg>
