<svg width="27" height="35" viewBox="0 0 27 35" fill="none" xmlns="http://www.w3.org/2000/svg">
<path d="M17.475 14.6313L13.5 18.6063L9.50625 14.6313L6.8625 17.275L10.8563 21.25L6.88125 25.225L9.525 27.8688L13.5 23.8937L17.475 27.8688L20.1188 25.225L16.1438 21.25L20.1188 17.275L17.475 14.6313ZM20.0625 2.5L18.1875 0.625H8.8125L6.9375 2.5H0.375V6.25H26.625V2.5H20.0625ZM2.25 30.625C2.25 32.6875 3.9375 34.375 6 34.375H21C23.0625 34.375 24.75 32.6875 24.75 30.625V8.125H2.25V30.625ZM6 11.875H21V30.625H6V11.875Z" fill="#4B4950"/>
</svg>
