<svg width="700" height="220" viewBox="0 0 700 220" fill="none" xmlns="http://www.w3.org/2000/svg">
<g clip-path="url(#clip0_202_2)">
<rect width="700" height="220" fill="white"/>
<rect width="700" height="220" fill="#0066FF"/>
<g filter="url(#filter0_f_202_2)">
<circle cx="513" cy="18" r="202" fill="#F22786" fill-opacity="0.8"/>
</g>
<g clip-path="url(#clip1_202_2)">
<path d="M439.515 38.1634L431.305 21.4198C431.417 20.822 431.673 20.2555 432.052 19.762C432.628 19.4551 433.266 19.2622 433.925 19.1952C434.585 19.1281 435.252 19.1885 435.886 19.3724C438.341 19.9195 443.179 23.8733 443.971 28.656C444.763 33.4387 441.552 38.2463 441.552 38.2463C440.876 38.3793 440.175 38.3508 439.515 38.1634Z" fill="#75AFE0" stroke="#010101" stroke-width="0.72" stroke-miterlimit="10"/>
<path d="M439.595 38.1966C439.595 38.1966 441.801 33.6957 441.374 30.8194C440.297 23.8319 432.248 19.6708 432.248 19.6708C432.248 19.6708 435.379 17.5737 439.79 21.7348C444.202 25.8958 445.795 30.7448 441.569 38.3126C440.911 38.4314 440.232 38.3915 439.595 38.1966Z" fill="#777D84" stroke="#777D84" stroke-width="0.72" stroke-miterlimit="10"/>
<path d="M438.056 22.3564C437.529 21.6992 436.878 21.1374 436.134 20.6986C436.134 20.6986 436.553 20.2345 437.424 20.9307C438.509 21.8094 438.056 22.3564 438.056 22.3564Z" fill="#06488B"/>
<path d="M453.933 36.4144C455.303 32.8751 451.558 28.9544 448.472 25.6969C444.389 21.3866 440.057 19.3227 439.675 19.4802C436.303 21.138 441.72 22.5056 444.344 26.6998C445.385 28.3576 444.638 28.8798 444.344 33.2315C444.051 37.5832 443.891 39.5974 445.056 40.4097C447.057 41.8105 452.599 39.8295 453.933 36.4144Z" fill="#FDEBE6" stroke="#010101" stroke-miterlimit="10"/>
<path d="M444.265 40.9153C444.265 40.9153 440.386 37.5417 440.849 33.5382C440.867 33.0489 440.779 32.5613 440.591 32.1042L439.39 28.1007C439.008 27.2718 438.883 26.2025 440.057 25.73C441.223 24.9011 443.437 29.1036 443.98 30.1895C444.074 30.3561 444.184 30.5143 444.309 30.6619L446.435 32.9497" fill="#FDEBE6"/>
<path d="M444.265 40.9153C444.265 40.9153 440.386 37.5417 440.849 33.5382C440.867 33.0489 440.779 32.5613 440.591 32.1042L439.39 28.1007C439.008 27.2718 438.883 26.2025 440.057 25.73C441.223 24.9011 443.437 29.1036 443.98 30.1895C444.074 30.3561 444.184 30.5143 444.309 30.6619L446.435 32.9497" stroke="#010101" stroke-miterlimit="10"/>
<path d="M444.265 40.9153C444.265 40.9153 440.386 37.5417 440.849 33.5382C440.867 33.0489 440.779 32.5613 440.591 32.1042L439.39 28.1007C439.008 27.2718 438.883 26.2025 440.057 25.73C441.223 24.9011 443.437 29.1036 443.98 30.1895C444.074 30.3561 444.184 30.5143 444.309 30.6619L446.435 32.9497" stroke="#010101" stroke-miterlimit="10"/>
<path d="M566.241 143.483L567.78 141.385L555.487 118.624L542.865 120.622L533.357 126.565L546.032 142.911L555.283 135.227C558.841 138.799 559.286 142.173 562.399 143.516C563.009 143.752 563.663 143.87 564.324 143.865C564.984 143.859 565.636 143.729 566.241 143.483Z" fill="#B3CBE5" stroke="#010101" stroke-linecap="round" stroke-linejoin="round"/>
<path d="M560.237 113.924C562.158 114.935 575.955 140.449 575.955 140.449L567.495 143.764C567.395 143.826 567.282 143.868 567.163 143.887C567.044 143.907 566.923 143.904 566.805 143.878C566.688 143.852 566.578 143.805 566.481 143.738C566.384 143.672 566.302 143.588 566.241 143.491C566.189 143.436 566.16 143.365 566.161 143.292C565.324 140.796 564.206 138.39 562.826 136.114C560.114 131.82 557.02 127.747 553.575 123.937C553.53 123.987 558.334 112.913 560.237 113.924Z" fill="white" stroke="#010101" stroke-linecap="round" stroke-linejoin="round"/>
<path d="M556.866 111.321L542.821 120.622L541.86 121.243C541.86 121.243 545.908 125.164 553.486 124.037C555.973 123.631 558.375 122.858 560.602 121.749C561.492 121.318 562.434 120.779 563.431 120.191" fill="white"/>
<path d="M556.866 111.321L542.821 120.622L541.86 121.243C541.86 121.243 545.908 125.164 553.486 124.037C555.973 123.631 558.375 122.858 560.602 121.749C561.492 121.318 562.434 120.779 563.431 120.191" stroke="#010101" stroke-linecap="round" stroke-linejoin="round"/>
<path d="M556.911 111.363L558.494 110.31C558.928 110.131 559.416 110.099 559.873 110.22C560.329 110.341 560.726 110.608 560.993 110.973C560.993 110.973 562.488 112.954 563.991 115.168C565.494 117.381 567.033 119.909 566.953 120.763C566.66 123.44 569.746 129.11 572.53 130.005C573.909 130.427 576.239 135.442 576.239 135.442C577.031 137.224 578.018 139.786 576.622 140.217L575.99 140.449C575.99 140.449 569.203 128.844 563.537 120.216C560.744 115.98 558.236 112.49 556.911 111.363Z" fill="#010101" stroke="#010101" stroke-linecap="round" stroke-linejoin="round"/>
<path d="M558.031 138.667C558.031 138.667 559.535 138.857 560.362 136.644" stroke="#010101" stroke-linecap="round" stroke-linejoin="round"/>
<path d="M557.444 137.771C557.444 137.771 558.939 137.962 559.775 135.749" stroke="#010101" stroke-linecap="round" stroke-linejoin="round"/>
<path d="M558.698 139.686C558.698 139.686 560.202 139.885 561.029 137.672" stroke="#010101" stroke-linecap="round" stroke-linejoin="round"/>
<path d="M536.319 124.766L542.821 133.503L541.611 121.351C539.53 122.744 536.319 124.766 536.319 124.766Z" fill="#010101"/>
<path d="M479.097 178.702L481.517 179.829L504.074 165.382L500.24 154.001L492.653 146.044L476.989 159.944L486.4 167.404C483.073 171.176 479.524 172.03 478.528 175.096C478.211 176.322 478.415 177.614 479.097 178.702Z" fill="#B3CBE5" stroke="#010101" stroke-linecap="round" stroke-linejoin="round"/>
<path d="M509.732 169.186C508.94 171.093 483.687 187.281 483.687 187.281L479.017 179.904C478.937 179.819 478.877 179.72 478.84 179.612C478.802 179.504 478.789 179.391 478.801 179.278C478.813 179.165 478.849 179.056 478.907 178.957C478.966 178.858 479.046 178.771 479.142 178.702C479.142 178.702 479.266 178.628 479.311 178.586C481.856 177.48 484.261 176.112 486.48 174.508C490.65 171.42 494.539 168.015 498.106 164.329C498.106 164.329 510.523 167.28 509.732 169.186Z" fill="white" stroke="#010101" stroke-linecap="round" stroke-linejoin="round"/>
<path d="M512.026 165.73L500.267 154.043L499.476 153.263C499.476 153.263 495.918 157.541 498.106 164.371C498.859 166.618 500.014 168.731 501.521 170.62C502.108 171.4 502.776 172.212 503.523 173.033" fill="white"/>
<path d="M512.026 165.73L500.267 154.043L499.476 153.263C499.476 153.263 495.918 157.541 498.106 164.371C498.859 166.618 500.014 168.731 501.521 170.62C502.108 171.4 502.776 172.212 503.523 173.033" stroke="#010101" stroke-width="0.64" stroke-linecap="round" stroke-linejoin="round"/>
<path d="M511.982 165.771L513.316 167.089C513.585 167.466 513.698 167.92 513.634 168.369C513.571 168.817 513.334 169.228 512.969 169.526C512.969 169.526 511.048 171.184 508.922 172.842C506.796 174.5 504.297 176.298 503.38 176.298C500.507 176.381 494.877 180.028 494.299 182.673C494.005 183.991 489.051 186.817 489.051 186.817C487.272 187.787 484.603 188.989 484.007 187.787L483.669 187.248C483.669 187.248 495.09 179.398 503.505 172.991C507.632 169.883 510.986 167.131 511.982 165.771Z" fill="#010101" stroke="#010101" stroke-linecap="round" stroke-linejoin="round"/>
<path d="M483.1 170.471C483.1 170.471 483.1 171.864 485.564 172.369" stroke="#010101" stroke-linecap="round" stroke-linejoin="round"/>
<path d="M483.981 169.808C483.981 169.808 483.936 171.209 486.436 171.715" stroke="#010101" stroke-linecap="round" stroke-linejoin="round"/>
<path d="M482.14 171.184C482.14 171.184 482.14 172.577 484.604 173.082" stroke="#010101" stroke-linecap="round" stroke-linejoin="round"/>
<path d="M495.179 148.804L487.298 159.522L499.511 153.189C497.848 151.44 495.179 148.804 495.179 148.804Z" fill="white"/>
<path d="M473.6 60.4109C473.6 60.4109 467.374 53.73 454.352 35.942C454.352 35.942 444.932 37.1107 440.885 38.3541C440.885 38.3541 444.843 49.1297 447.6 54.7827C450.358 60.4358 463.095 79.4423 476.438 84.4488C476.438 84.4488 479.106 90.7401 484.853 101.267L466.057 137.423C466.057 137.423 457.643 150.686 481.312 168.092C481.312 168.092 494.272 154.266 499.609 147.37C499.609 147.37 488.606 141.51 490.065 138.169C492.249 131.825 495.806 125.966 500.517 120.953C501.806 130.071 509.136 146.508 518.849 150.081C526.641 152.915 535.438 154.316 551.938 145.729C548.896 139.015 536.479 121.807 536.479 121.807C521.687 138.973 516.305 100.256 517.266 95.0503C517.266 95.0503 513.601 81.2658 515.683 72.6702C516.723 68.3185 516.181 70.5731 513.308 67.6969C507.428 61.8366 498.764 65.2102 498.764 65.2102C498.764 65.2102 482.06 70.2001 473.6 60.4109Z" fill="#3463AC" stroke="#010101" stroke-miterlimit="10"/>
<path d="M514.152 133.461C513.61 134.472 512.151 138.045 507.979 139.902" stroke="#010101" stroke-width="2.89" stroke-miterlimit="10"/>
<path d="M512.187 128.803C511.524 130.199 510.572 131.459 509.386 132.511C508.2 133.564 506.803 134.388 505.275 134.937" stroke="#010101" stroke-width="2.89" stroke-miterlimit="10"/>
<path d="M508.984 124.874C508.984 124.874 508.442 127.75 503.105 130.005" stroke="#010101" stroke-width="2.89" stroke-miterlimit="10"/>
<path d="M500.65 120.622L491.808 113.75L496.603 125.595C497.19 124.252 500.65 120.622 500.65 120.622Z" fill="#010101"/>
<path d="M526.196 74.3114C525.504 75.2549 524.909 76.2567 524.417 77.3037L523.163 82.7413L509.821 81.0835L505.738 72.6536C505.533 72.2413 505.489 71.7751 505.613 71.3357C505.701 70.9029 505.954 70.5142 506.325 70.2416C506.511 70.0884 506.728 69.9719 506.963 69.8993C507.199 69.8266 507.448 69.7992 507.695 69.8188C508.197 69.8655 508.661 70.0876 508.993 70.4405L511.617 73.7561L511.199 62.9805C511.199 62.73 511.241 62.481 511.324 62.2427C511.396 62.0117 511.524 61.799 511.698 61.6211C511.857 61.4276 512.074 61.2808 512.32 61.1983C512.554 61.088 512.814 61.0338 513.076 61.0409C513.327 61.0426 513.575 61.092 513.804 61.1861C514.033 61.2802 514.24 61.4169 514.411 61.5879C514.78 61.9437 515.001 62.4113 515.033 62.9059L515.496 69.9763L516.785 62.7152C516.832 62.4361 516.945 62.1701 517.115 61.9361C517.276 61.7145 517.474 61.5186 517.702 61.3558C517.936 61.1956 518.207 61.0879 518.493 61.0409C518.768 60.979 519.055 60.979 519.329 61.0409C519.839 61.1832 520.269 61.5041 520.53 61.9361C520.827 62.375 520.947 62.8979 520.868 63.4115L519.578 70.2416L522.327 64.4393C522.43 64.1827 522.584 63.9465 522.781 63.743C522.977 63.548 523.221 63.4001 523.492 63.312C523.764 63.2371 524.045 63.198 524.328 63.196C524.613 63.1971 524.89 63.2811 525.12 63.4364C525.585 63.6923 525.939 64.0919 526.121 64.5658C526.303 65.0397 526.301 65.558 526.116 66.0308L523.323 72.09L526.036 69.3712C526.182 69.2113 526.35 69.0692 526.534 68.9485C526.729 68.8505 526.939 68.7832 527.157 68.7496C527.383 68.7357 527.61 68.7639 527.824 68.8324C528.044 68.9084 528.244 69.0271 528.411 69.1806C528.755 69.4861 528.964 69.8997 528.998 70.341C529.013 70.5653 528.983 70.7902 528.909 71.0041C528.834 71.2127 528.722 71.4086 528.58 71.5844L526.196 74.3114Z" fill="#FDEBE6" stroke="#010101" stroke-miterlimit="10"/>
<path d="M439.799 38.3955C439.675 39.0503 432.683 49.0302 440.591 64.2569C449.761 81.9289 461.138 95.5974 479.391 91.9834C503.229 87.2421 511.066 109.39 517.274 107.401C522.318 105.743 517.23 99.1119 517.23 99.1119" stroke="white" stroke-width="1.88" stroke-miterlimit="10"/>
<path d="M524.693 78.431C524.693 78.431 533.819 98.9378 521.651 100.488C512.898 101.615 510.15 86.9355 509.403 80.8017C512.027 80.2546 524.693 78.431 524.693 78.431Z" fill="#3463AC" stroke="#010101" stroke-miterlimit="10"/>
<path d="M488.606 68.6832L491.017 68.2191C491.381 68.1396 491.7 67.935 491.909 67.6461C492.118 67.3572 492.203 67.0053 492.146 66.6607L490.812 60.5684C490.729 60.2296 490.511 59.9327 490.202 59.7374C489.894 59.5422 489.517 59.4629 489.149 59.5157L486.729 59.9882C486.366 60.0658 486.047 60.2688 485.838 60.5563C485.628 60.8438 485.543 61.1946 485.6 61.5382L486.934 67.6388C486.965 67.8119 487.035 67.9771 487.137 68.1244C487.239 68.2717 487.373 68.3981 487.529 68.4958C487.686 68.5935 487.862 68.6605 488.047 68.6927C488.232 68.725 488.422 68.7217 488.606 68.6832Z" fill="white" stroke="#010101" stroke-miterlimit="10"/>
<path d="M485.937 62.8976L486.605 65.5003L491.186 62.7401L485.937 62.8976Z" fill="#010101"/>
<path d="M499.627 49.5773C499.855 47.3625 499.253 45.1426 497.923 43.2946C496.594 41.4466 494.618 40.0846 492.333 39.4399C483.954 36.6797 477.034 39.2493 473.912 46.7839C473.912 46.7839 471.786 45.955 470.576 48.997C469.784 50.9781 470.122 55.5536 474.49 55.6282C474.49 55.6282 476.785 61.1818 485.288 62.9307C492.289 64.3647 495.624 59.6152 495.624 59.6152C495.624 59.6152 501.958 61.2729 504.377 56.2996C506.334 52.3043 504.377 50.5968 503.043 49.8922C501.957 49.4975 500.775 49.3886 499.627 49.5773Z" fill="#FDEBE6" stroke="#010101" stroke-miterlimit="10"/>
<path d="M499.191 50.3896C499.191 50.3896 507.819 39.1664 491.852 35.6767C481.018 33.3061 478.51 38.5447 470.015 35.3617C470.015 35.3617 470.06 36.0995 473.893 38.5115C479.764 42.2333 486.346 45.4245 492.475 44.0237L499.191 50.3896Z" fill="#80AEDE" stroke="#010101" stroke-miterlimit="10"/>
<path d="M492.564 44.0651L500.686 47.6791L499.191 50.2404L492.564 44.0651Z" fill="#010101"/>
<path d="M489.976 50.8206C489.7 50.8206 489.435 50.7184 489.24 50.5365C489.045 50.3547 488.935 50.108 488.935 49.8508C488.935 49.5936 489.045 49.3469 489.24 49.165C489.435 48.9832 489.7 48.881 489.976 48.881C490.252 48.881 490.517 48.9832 490.712 49.165C490.907 49.3469 491.017 49.5936 491.017 49.8508C491.017 50.108 490.907 50.3547 490.712 50.5365C490.517 50.7184 490.252 50.8206 489.976 50.8206Z" fill="#010101" stroke="#010101" stroke-miterlimit="10"/>
<path d="M477.105 48.9556C476.899 48.9556 476.698 48.8987 476.527 48.7922C476.355 48.6856 476.222 48.5341 476.143 48.3569C476.065 48.1797 476.044 47.9847 476.084 47.7966C476.124 47.6085 476.223 47.4357 476.369 47.3C476.514 47.1644 476.7 47.072 476.902 47.0346C477.104 46.9972 477.313 47.0164 477.503 47.0898C477.693 47.1632 477.856 47.2875 477.97 47.447C478.084 47.6065 478.146 47.794 478.146 47.9858C478.146 48.243 478.036 48.4897 477.841 48.6715C477.646 48.8534 477.381 48.9556 477.105 48.9556Z" fill="#010101" stroke="#010101" stroke-miterlimit="10"/>
<path d="M483.224 50.9947C483.026 50.9947 482.831 50.9397 482.666 50.8368C482.501 50.7339 482.372 50.5876 482.296 50.4165C482.22 50.2453 482.2 50.057 482.239 49.8753C482.277 49.6936 482.373 49.5267 482.514 49.3957C482.654 49.2647 482.833 49.1755 483.028 49.1394C483.223 49.1032 483.425 49.1218 483.609 49.1927C483.793 49.2636 483.95 49.3836 484.06 49.5376C484.171 49.6917 484.229 49.8728 484.229 50.058C484.229 50.3064 484.124 50.5447 483.935 50.7203C483.747 50.896 483.491 50.9947 483.224 50.9947Z" stroke="#010101" stroke-miterlimit="10"/>
<path d="M478.35 45.8058C478.27 45.8058 477.514 44.148 475.308 45.5406" stroke="#010101" stroke-miterlimit="10"/>
<path d="M489.309 47.3227C489.398 47.3227 490.857 46.1954 492.146 48.3339" stroke="#010101" stroke-miterlimit="10"/>
<path d="M487.103 51.865C486.629 52.4104 485.994 52.8153 485.277 53.0302C484.56 53.2451 483.791 53.2608 483.065 53.0752C482.271 52.927 481.523 52.6167 480.874 52.1667C480.225 51.7166 479.691 51.138 479.311 50.4725" stroke="#010101" stroke-miterlimit="10"/>
<path d="M473.938 52.7188C473.975 53.7783 474.185 54.8265 474.561 55.8271L473.938 52.7188Z" fill="#80AEDE"/>
<path d="M473.938 52.7188C473.975 53.7783 474.185 54.8265 474.561 55.8271" stroke="#010101" stroke-miterlimit="10"/>
<path d="M503.185 52.7602C502.106 52.8559 501.078 53.2355 500.221 53.8548C499.364 54.4741 498.714 55.3076 498.346 56.2581" stroke="#010101" stroke-miterlimit="10"/>
<path d="M501.272 55.91C501.238 55.5217 501.081 55.1516 500.822 54.8463C500.562 54.5409 500.211 54.314 499.814 54.1942" stroke="#010101" stroke-miterlimit="10"/>
<path d="M471.848 49.3369C472.344 49.7626 472.712 50.3015 472.917 50.9003C473.121 51.4992 473.154 52.1374 473.013 52.7519" stroke="#010101" stroke-miterlimit="10"/>
<path d="M471.643 51.4423C472.011 51.1784 472.436 50.9918 472.889 50.8952L471.643 51.4423Z" fill="#80AEDE"/>
<path d="M471.643 51.4423C472.011 51.1784 472.436 50.9918 472.889 50.8952" stroke="#010101" stroke-miterlimit="10"/>
<path d="M471.163 62.3505C471.617 63.0551 473.831 70.0012 484.746 71.087C497.038 72.3304 501.121 65.7324 501.708 65.0693C502.598 64.0995 494.957 70.6643 484.915 69.2137C474.063 67.7134 470.229 60.9911 471.163 62.3505Z" fill="#010101" stroke="#010101" stroke-width="0.61" stroke-miterlimit="10"/>
<path d="M487.975 69.3464C483.531 69.3464 479.187 68.1184 475.492 65.8177C471.797 63.517 468.917 60.247 467.216 56.4211C465.516 52.5952 465.071 48.3853 465.938 44.3238C466.805 40.2622 468.945 36.5315 472.087 33.6032C475.229 30.675 479.233 28.6809 483.591 27.873C487.95 27.0651 492.467 27.4798 496.573 29.0645C500.679 30.6492 504.188 33.3329 506.657 36.7761C509.126 40.2193 510.443 44.2674 510.443 48.4085C510.443 53.9616 508.076 59.2872 503.862 63.2138C499.649 67.1404 493.934 69.3464 487.975 69.3464V69.3464Z" stroke="white" stroke-miterlimit="10"/>
<path d="M503.354 36.5305C503.354 36.5305 506.102 38.0059 506.396 43.286" stroke="white" stroke-miterlimit="10"/>
<path d="M573.865 114.239L592.411 103.464" stroke="white" stroke-miterlimit="10"/>
<path d="M579.495 121.152L590.534 114.745" stroke="white" stroke-miterlimit="10"/>
<path d="M585.081 128.024L603.698 117.306" stroke="white" stroke-miterlimit="10"/>
<path d="M511.19 175.826L524.186 192.213" stroke="white" stroke-miterlimit="10"/>
<path d="M504.314 181.578L512.026 191.326" stroke="white" stroke-miterlimit="10"/>
<path d="M497.359 187.364L510.354 203.751" stroke="white" stroke-miterlimit="10"/>
<path fill-rule="evenodd" clip-rule="evenodd" d="M653.83 37.3925C654.695 39.5208 655.009 41.809 654.748 44.0716C654.487 46.3342 653.657 48.5076 652.327 50.4159C650.996 52.3241 649.202 53.9135 647.09 55.0552C644.977 56.1969 642.606 56.8589 640.168 56.9876C642.231 58.2202 644.578 58.9809 647.017 59.2075C649.456 59.4341 651.917 59.1203 654.201 58.2915C656.485 57.4627 658.527 56.1426 660.159 54.4387C661.791 52.7348 662.968 50.6956 663.593 48.4872C664.219 46.2788 664.275 43.964 663.758 41.7315C663.24 39.499 662.164 37.4121 660.616 35.6411C659.069 33.87 657.094 32.465 654.852 31.5406C652.611 30.6162 650.167 30.1987 647.72 30.3221C650.522 32.0027 652.666 34.483 653.83 37.3925Z" fill="white"/>
<path d="M644.802 56.0675L645.416 57.6258L644.802 56.0675ZM653.83 37.3925L652.194 37.9728L653.83 37.3925ZM640.168 56.9876L639.216 58.3635L634.635 55.6282L640.07 55.3547L640.168 56.9876ZM647.684 30.3221L646.741 31.698L642.142 28.9544L647.586 28.6892L647.684 30.3221ZM644.179 54.534C645.874 53.9361 647.425 53.0328 648.744 51.8758C650.064 50.7189 651.126 49.3309 651.869 47.7913C652.613 46.2517 653.023 44.5906 653.077 42.903C653.132 41.2154 652.828 39.5345 652.185 37.9562L655.467 36.7957C656.28 38.778 656.665 40.8905 656.599 43.0117C656.534 45.133 656.019 47.2213 655.086 49.1568C654.152 51.0922 652.817 52.8367 651.157 54.2901C649.498 55.7435 647.547 56.8771 645.416 57.6258L644.179 54.534ZM640.034 55.3629C641.454 55.2916 642.853 55.0119 644.179 54.534L645.416 57.6258C643.752 58.2187 642 58.5655 640.221 58.6536L640.034 55.3629ZM641.057 55.6116C643.357 56.9866 646.044 57.6933 648.776 57.6416C651.509 57.5899 654.163 56.7824 656.401 55.3215L658.42 57.9988C655.61 59.8304 652.279 60.8429 648.851 60.9078C645.422 60.9728 642.05 60.0872 639.163 58.3635L641.057 55.6116ZM656.401 55.3215C657.885 54.3546 659.151 53.1246 660.125 51.7019C661.099 50.2791 661.763 48.6915 662.079 47.0296C662.394 45.3677 662.355 43.6642 661.964 42.0163C661.573 40.3684 660.837 38.8085 659.799 37.4257L662.681 35.5524C665.309 39.0558 666.337 43.3884 665.538 47.5976C664.739 51.8069 662.179 55.5481 658.42 57.9988L656.401 55.3215ZM659.817 37.4257C658.478 35.6297 656.668 34.1822 654.561 33.2204C652.453 32.2586 650.117 31.8145 647.773 31.9301L647.586 28.6643C650.525 28.5144 653.457 29.0662 656.103 30.2672C658.749 31.4682 661.022 33.2788 662.708 35.5275L659.817 37.4257ZM652.194 37.9728C651.153 35.3865 649.239 33.1848 646.741 31.698L648.627 28.9461C651.761 30.8112 654.163 33.5705 655.476 36.8123L652.194 37.9728Z" fill="white" fill-opacity="0.6"/>
<path d="M364.717 17.9384C354.932 17.2339 354.043 8.06631 354.043 8.06631C354.043 8.06631 354.043 17.1841 344.08 17.9716C344.08 17.9716 352.513 17.9716 354.043 25.5891C354.043 25.6223 355.697 16.7946 364.717 17.9384Z" fill="white" stroke="white" stroke-width="2" stroke-miterlimit="10"/>
<path d="M385.636 171.872C375.852 171.168 374.962 162 374.962 162C374.962 162 374.962 171.118 365 171.905C365 171.905 373.432 171.905 374.962 179.523C374.962 179.556 376.617 170.728 385.636 171.872Z" fill="white" stroke="white" stroke-width="2" stroke-miterlimit="10"/>
<path d="M688.805 186.535V190.663" stroke="white" stroke-width="2"/>
<path d="M683.717 191.21H688.147" stroke="white" stroke-width="2"/>
<path d="M688.805 191.989V196.117" stroke="white" stroke-width="2"/>
<path d="M689.57 191.21H694" stroke="white" stroke-width="2"/>
<path d="M579.636 33.8721C569.852 33.1676 568.962 24 568.962 24C568.962 24 568.962 33.1178 559 33.9053C559 33.9053 567.432 33.9053 568.962 41.5228C568.962 41.5559 570.617 32.7282 579.636 33.8721Z" fill="white" stroke="white" stroke-width="2" stroke-miterlimit="10"/>
<path d="M630.764 169L627.499 185.277" stroke="white" stroke-width="1.6" stroke-miterlimit="10"/>
<path d="M633.351 184.227L633.537 184.688" stroke="white" stroke-width="1.6" stroke-miterlimit="10"/>
<path d="M633.915 185.662L637.603 194.87" stroke="white" stroke-width="1.6" stroke-miterlimit="10" stroke-dasharray="4.52 4.52"/>
<path d="M637.77 195.376L637.955 195.843" stroke="white" stroke-width="1.6" stroke-miterlimit="10"/>
<path d="M633.351 170.05L650 177.139L633.351 184.227" stroke="white" stroke-width="1.6" stroke-miterlimit="10"/>
<path d="M624.649 184.227L624.476 184.695" stroke="white" stroke-width="1.6" stroke-miterlimit="10"/>
<path d="M624.104 185.662L620.583 194.902" stroke="white" stroke-width="1.6" stroke-miterlimit="10" stroke-dasharray="4.51 4.51"/>
<path d="M620.391 195.376L620.211 195.843" stroke="white" stroke-width="1.6" stroke-miterlimit="10"/>
<path d="M624.649 170.05L608 177.139L624.649 184.227" stroke="white" stroke-width="1.6" stroke-miterlimit="10"/>
<path d="M629.099 194.249C631.015 194.234 632.929 194.392 634.817 194.723C635.485 194.845 636.143 195.02 636.783 195.248C637.19 195.381 637.563 195.599 637.878 195.888C637.978 195.987 638.037 196.119 638.045 196.259C638.037 196.393 637.98 196.518 637.884 196.612C637.74 196.765 637.572 196.892 637.385 196.989C636.775 197.285 636.129 197.5 635.464 197.63C631.256 198.45 626.929 198.45 622.721 197.63C622.056 197.501 621.41 197.286 620.8 196.989C620.614 196.892 620.445 196.765 620.301 196.612C620.205 196.518 620.148 196.393 620.141 196.259C620.147 196.137 620.195 196.019 620.275 195.926C620.573 195.631 620.938 195.412 621.338 195.286C621.974 195.048 622.63 194.868 623.298 194.748C625.211 194.4 627.154 194.233 629.099 194.249Z" fill="#5D00F5" stroke="white" stroke-width="1.6"/>
<path d="M636.066 195.914C635.426 195.164 632.531 194.594 629.099 194.594C625.667 194.594 622.728 195.171 622.107 195.939C622.026 196.021 621.98 196.131 621.979 196.247C621.979 197.169 625.18 197.905 629.099 197.905C633.018 197.905 636.22 197.169 636.22 196.247C636.213 196.12 636.158 196.001 636.066 195.914Z" fill="#4BD0A0" stroke="white" stroke-miterlimit="10"/>
<path d="M632.89 196.074C632.518 195.664 630.969 195.356 629.105 195.356C627.242 195.356 625.641 195.677 625.308 196.093C625.264 196.137 625.239 196.197 625.238 196.259C625.238 196.752 626.973 197.156 629.08 197.156C631.187 197.156 632.922 196.752 632.922 196.259C632.931 196.196 632.92 196.131 632.89 196.074Z" fill="#EB236B" stroke="white" stroke-miterlimit="10"/>
</g>
<path d="M238.148 176.162C174.287 218.981 110.085 248.143 57.9354 260.699C31.8565 266.978 8.84581 269.09 -9.57795 266.718C-28.0044 264.345 -41.7161 257.508 -49.4274 246.007C-57.1387 234.506 -58.2575 219.225 -53.4557 201.278C-48.6547 183.333 -37.9627 162.848 -22.2517 141.107C9.16557 97.6304 60.5215 49.3103 124.383 6.49108C188.244 -36.3282 252.446 -65.4901 304.595 -78.0458C330.674 -84.3246 353.685 -86.4373 372.109 -84.065C390.535 -81.6922 404.247 -74.8549 411.958 -63.3541C419.669 -51.8534 420.788 -36.5725 415.986 -18.6251C411.185 -0.680367 400.493 19.8047 384.782 41.5462C353.365 85.0226 302.009 133.343 238.148 176.162Z" stroke="white" stroke-width="2"/>
<path d="M321.136 71.3263C321.136 71.3263 323.325 54.1198 338.343 54.1198C353.36 54.1198 355.274 71.2093 355.274 71.2093" stroke="white" stroke-width="1.6" stroke-miterlimit="10" stroke-dasharray="12.53 12.53"/>
<path d="M325.266 69.234C325.266 69.234 325.3 68.9724 325.383 68.5457" stroke="white" stroke-width="1.6" stroke-miterlimit="10"/>
<path d="M325.748 67.1279C326.759 63.4526 329.836 56.219 338.294 56.219C347.318 56.219 350.098 64.3749 350.862 67.7198" stroke="white" stroke-width="1.6" stroke-miterlimit="10" stroke-dasharray="12.58 12.58"/>
<path d="M351 68.4356C351.083 68.8761 351.11 69.1239 351.11 69.1239" stroke="white" stroke-width="1.6" stroke-miterlimit="10"/>
<path d="M328.934 67.3894C328.934 67.3894 328.934 67.1279 329.065 66.7012" stroke="white" stroke-width="1.6" stroke-miterlimit="10"/>
<path d="M329.437 65.2765C330.317 62.5235 332.609 58.0498 338.26 58.0498C344.399 58.0498 346.519 63.315 347.207 65.9097" stroke="white" stroke-width="1.6" stroke-miterlimit="10" stroke-dasharray="12.64 12.64"/>
<path d="M347.352 66.653C347.435 67.0935 347.469 67.3413 347.469 67.3413" stroke="white" stroke-width="1.6" stroke-miterlimit="10"/>
<path d="M321.247 54.0785H355.659" stroke="white" stroke-width="1.6" stroke-miterlimit="10"/>
<path d="M319.134 56.2672C319.556 56.2672 319.968 56.1421 320.319 55.9076C320.67 55.6732 320.943 55.34 321.105 54.9501C321.266 54.5602 321.309 54.1312 321.226 53.7174C321.144 53.3035 320.941 52.9233 320.642 52.6249C320.344 52.3265 319.964 52.1233 319.55 52.041C319.136 51.9587 318.707 52.0009 318.317 52.1624C317.927 52.3239 317.594 52.5974 317.36 52.9482C317.125 53.2991 317 53.7116 317 54.1336C316.999 54.414 317.054 54.6919 317.161 54.9512C317.267 55.2104 317.425 55.446 317.623 55.6443C317.821 55.8426 318.057 55.9997 318.316 56.1066C318.575 56.2135 318.853 56.2681 319.134 56.2672Z" fill="#5D00F5" stroke="white" stroke-width="1.6" stroke-miterlimit="10"/>
<path d="M357.524 56.3842C357.946 56.3842 358.359 56.2591 358.71 56.0246C359.06 55.7902 359.334 55.457 359.495 55.0671C359.657 54.6772 359.699 54.2482 359.617 53.8344C359.534 53.4205 359.331 53.0403 359.033 52.7419C358.735 52.4435 358.354 52.2403 357.94 52.158C357.527 52.0757 357.098 52.1179 356.708 52.2794C356.318 52.4409 355.985 52.7144 355.75 53.0652C355.516 53.4161 355.391 53.8286 355.391 54.2506C355.391 54.8165 355.615 55.3592 356.016 55.7593C356.416 56.1594 356.958 56.3842 357.524 56.3842Z" fill="#5D00F5" stroke="white" stroke-width="1.6" stroke-miterlimit="10"/>
<path d="M338.26 75.6898C338.749 75.8068 338.26 59.1716 338.26 59.1716" stroke="white" stroke-width="1.6" stroke-miterlimit="10"/>
<path d="M340.222 85.3392C342.278 83.1893 344.59 81.2987 347.105 79.7093L338.226 59.1785L329.877 79.7299C332.226 81.3553 334.384 83.2391 336.313 85.3461" stroke="white" stroke-width="1.6" stroke-miterlimit="10"/>
<path d="M336.312 85.3254C336.409 85.2787 336.515 85.2551 336.622 85.2566H339.905C340.02 85.2596 340.133 85.2878 340.236 85.3392" stroke="white" stroke-width="1.6" stroke-miterlimit="10"/>
<path d="M336.312 85.3254C336.205 85.3843 336.115 85.4709 336.052 85.5761C335.989 85.6814 335.955 85.8016 335.955 85.9242V88.1129C335.955 88.2954 336.027 88.4705 336.156 88.5996C336.285 88.7286 336.46 88.8011 336.643 88.8011H339.926C340.108 88.8011 340.283 88.7286 340.413 88.5996C340.542 88.4705 340.614 88.2954 340.614 88.1129V85.9242C340.612 85.8053 340.579 85.6889 340.519 85.5863C340.459 85.4838 340.373 85.3987 340.27 85.3392" stroke="white" stroke-width="1.6" stroke-miterlimit="10"/>
<path d="M335.892 92.5453C336.227 92.2325 336.627 91.9975 337.062 91.857C339.76 91.0242 341.97 93.2335 342.486 95.0023C342.77 95.8783 342.837 96.8102 342.681 97.7177C342.525 98.6253 342.151 99.4814 341.591 100.212C341.261 100.612 340.972 100.956 340.779 101.245C340.66 101.378 340.594 101.551 340.594 101.73C340.594 101.909 340.66 102.082 340.779 102.215C340.877 102.373 340.96 102.538 341.027 102.711C341.135 103.06 341.158 103.429 341.094 103.789C341.029 104.148 340.879 104.487 340.655 104.776V104.81C340.751 104.36 340.698 103.892 340.504 103.475C340.49 103.448 340.47 103.425 340.447 103.408C340.423 103.39 340.395 103.377 340.366 103.372C340.314 103.358 340.26 103.358 340.208 103.372C340.111 103.468 340.153 103.557 340.208 103.695C340.303 103.87 340.344 104.068 340.325 104.266V104.445L340.228 104.273C340.077 103.991 339.891 103.86 339.85 103.867C339.616 103.95 339.699 104.197 339.781 104.321C340.048 104.787 340.166 105.323 340.118 105.857C340.07 106.392 339.858 106.898 339.513 107.308C339.513 107.308 339.588 105.478 339.389 105.374C339.358 105.359 339.324 105.351 339.289 105.351C339.254 105.351 339.22 105.359 339.189 105.374C339.164 105.383 339.142 105.4 339.127 105.423C339.112 105.445 339.105 105.471 339.107 105.498C339.124 105.589 339.124 105.683 339.107 105.774C339.074 105.854 339.037 105.932 338.996 106.008C338.919 106.188 338.866 106.378 338.838 106.572C338.83 106.562 338.821 106.554 338.809 106.548C338.798 106.543 338.785 106.54 338.773 106.54C338.76 106.54 338.748 106.543 338.736 106.548C338.725 106.554 338.715 106.562 338.707 106.572C338.68 106.615 338.666 106.665 338.666 106.716C338.663 106.87 338.642 107.022 338.604 107.171C338.57 107.308 338.501 107.446 338.48 107.584C338.477 107.702 338.463 107.819 338.439 107.935C338.439 108.024 338.363 108.1 338.329 108.189C338.294 108.279 338.288 108.416 338.26 108.527C338.233 108.637 338.15 108.733 338.122 108.843C337.916 109.396 337.62 109.912 337.248 110.371C337.007 110.682 336.801 111.019 336.636 111.376L336.553 111.61L336.512 111.362C336.483 110.832 336.642 110.308 336.959 109.882C337.141 109.601 337.282 109.295 337.379 108.974C337.389 108.86 337.389 108.744 337.379 108.63V108.465C337.379 108.107 337.379 107.776 337.379 107.398C337.379 107.019 337.379 106.71 337.379 106.345C337.389 106.246 337.389 106.147 337.379 106.049C337.361 105.986 337.348 105.921 337.338 105.856C337.338 105.787 337.338 105.719 337.338 105.643C337.322 105.549 337.299 105.457 337.269 105.368C337.228 105.261 337.228 105.143 337.269 105.037C337.331 104.872 337.372 104.755 337.269 104.714H337.207C337.124 104.714 336.973 104.906 336.877 105.677L336.835 106.008L336.753 105.67C336.64 105.151 336.71 104.609 336.952 104.136C336.958 104.111 336.958 104.085 336.952 104.06H336.966C336.904 104.08 336.836 104.08 336.773 104.06C336.773 104.06 336.725 104.019 336.705 103.984V103.908H336.801C336.879 103.913 336.956 103.891 337.02 103.848C337.085 103.804 337.134 103.741 337.159 103.668C337.193 103.571 337.221 103.33 336.767 103.2H336.705C336.299 103.365 335.817 105.23 335.672 105.953L335.617 106.193L335.548 105.953C335.294 104.999 335.389 103.986 335.817 103.096C336.264 101.892 335.741 101.548 334.812 100.502C334.216 99.8252 333.906 98.9447 333.945 98.0444C333.93 96.2224 334.481 94.4407 335.521 92.9445C335.634 92.8018 335.758 92.6683 335.892 92.5453Z" fill="#EB236B" stroke="white" stroke-miterlimit="10"/>
<path d="M337.001 92.3938C337.284 92.1717 337.632 92.0463 337.992 92.0359C339.616 92.1392 339.981 92.7655 340.38 93.3299C340.442 93.4331 340.497 93.6671 340.559 93.7428C340.705 94.1044 340.746 94.4999 340.676 94.8835C340.607 95.2672 340.43 95.6234 340.167 95.9108C339.678 96.5372 340.167 97.2874 339.905 97.9756C339.899 97.786 339.82 97.606 339.685 97.4732C339.655 97.5208 339.635 97.5745 339.628 97.6303C339.621 97.6862 339.626 97.743 339.644 97.7967C339.588 97.7967 339.568 97.721 339.513 97.6934C339.5 97.6904 339.487 97.6902 339.474 97.6929C339.461 97.6955 339.449 97.701 339.438 97.7089C339.428 97.7168 339.419 97.7269 339.413 97.7385C339.407 97.7501 339.403 97.7629 339.403 97.776C339.402 97.8304 339.419 97.8836 339.451 97.9274C339.537 98.1272 339.579 98.3434 339.573 98.561C339.567 98.7786 339.514 98.9922 339.416 99.1869C339.476 99.0313 339.494 98.8632 339.471 98.6983C339.458 98.6137 339.418 98.5355 339.358 98.4749C339.297 98.4144 339.219 98.3745 339.134 98.361C338.947 99.1619 338.717 99.9523 338.446 100.729C338.41 101.027 338.457 101.33 338.584 101.603C338.469 101.394 338.368 101.178 338.281 100.956C338.252 100.669 338.29 100.379 338.391 100.109C338.449 99.7329 338.449 99.3499 338.391 98.9736C338.391 98.8497 338.171 98.1546 338.246 98.0513C338.134 98.2198 338.081 98.4207 338.095 98.6226C338.06 98.4604 338.012 98.3016 337.95 98.1477C337.903 97.9882 337.903 97.8185 337.95 97.659C337.95 97.542 338.019 97.4457 337.84 97.3768C337.661 97.308 337.476 97.8724 337.62 98.1064C337.53 98.0309 337.464 97.9309 337.43 97.8184C337.395 97.706 337.395 97.586 337.427 97.4732C337.525 97.2576 337.565 97.0206 337.544 96.7849C337.482 96.5165 337.235 96.3376 337.035 96.138C336.59 95.6792 336.342 95.0636 336.347 94.4242C336.311 93.6905 336.544 92.9689 337.001 92.3938Z" fill="#5D00F5" stroke="white" stroke-miterlimit="10"/>
<path d="M253.636 82.8721C243.852 82.1676 242.962 73 242.962 73C242.962 73 242.962 82.1178 233 82.9053C233 82.9053 241.432 82.9053 242.962 90.5228C242.962 90.5559 244.617 81.7282 253.636 82.8721Z" fill="white" stroke="white" stroke-width="2" stroke-miterlimit="10"/>
<g filter="url(#filter1_f_202_2)">
<circle cx="105" cy="10" r="100" fill="#5D00F5" fill-opacity="0.8"/>
</g>
<path d="M223.161 44.552C223.67 44.724 224.219 44.7411 224.738 44.6012C225.256 44.4612 225.722 44.1705 226.076 43.7659C226.429 43.3612 226.655 42.8608 226.724 42.3279C226.793 41.795 226.702 41.2536 226.463 40.7723C226.225 40.2909 225.848 39.8912 225.382 39.6237C224.916 39.3562 224.381 39.2329 223.845 39.2695C223.309 39.3061 222.796 39.5009 222.371 39.8293C221.945 40.1576 221.627 40.6048 221.456 41.1141C221.342 41.4518 221.295 41.8087 221.319 42.1644C221.343 42.52 221.437 42.8675 221.595 43.1869C221.754 43.5062 221.973 43.7912 222.242 44.0254C222.511 44.2597 222.823 44.4386 223.161 44.552V44.552Z" stroke="white" stroke-width="1.16" stroke-miterlimit="10"/>
<path d="M241.488 36.1441C241.997 36.3161 242.546 36.3332 243.065 36.1932C243.583 36.0533 244.049 35.7626 244.403 35.3579C244.756 34.9533 244.982 34.4529 245.051 33.92C245.12 33.3871 245.029 32.8457 244.79 32.3643C244.552 31.883 244.175 31.4832 243.709 31.2157C243.243 30.9482 242.708 30.825 242.172 30.8616C241.636 30.8982 241.123 31.093 240.698 31.4213C240.272 31.7497 239.954 32.1968 239.783 32.7062C239.555 33.3882 239.607 34.1327 239.926 34.7768C240.246 35.421 240.807 35.9125 241.488 36.1441Z" stroke="white" stroke-width="1.16" stroke-miterlimit="10"/>
<path d="M277.996 30.0778C280.661 30.9845 283.5 29.6891 284.338 27.2118C285.175 24.7346 283.69 21.9865 281.024 21.0912C278.358 20.1958 275.52 21.4743 274.688 23.9579C273.855 26.4415 275.337 29.1775 277.996 30.0778Z" stroke="white" stroke-width="1.16" stroke-miterlimit="10"/>
<path d="M261.885 43.2891L275.994 28.9421" stroke="white" stroke-width="1.16" stroke-miterlimit="10"/>
<path d="M285.928 27.9564C286.106 27.4024 283.327 26.0206 279.724 24.8822C276.12 23.7438 273.055 23.3233 272.881 23.895C272.706 24.4668 275.481 25.8308 279.085 26.9692C282.688 28.1076 285.753 28.5282 285.928 27.9564Z" stroke="white" stroke-width="1.16" stroke-miterlimit="10"/>
<path d="M244.562 34.9582L256.592 43.5486" stroke="white" stroke-width="1.16" stroke-miterlimit="10"/>
<path d="M226.791 41.2978L240.028 34.7299" stroke="white" stroke-width="1.16" stroke-miterlimit="10"/>
<path d="M258.377 46.8526C258.886 47.0243 259.435 47.0412 259.953 46.9013C260.472 46.7614 260.937 46.4709 261.29 46.0665C261.644 45.6621 261.869 45.162 261.939 44.6295C262.008 44.0969 261.918 43.5558 261.68 43.0745C261.441 42.5932 261.066 42.1933 260.6 41.9254C260.135 41.6575 259.6 41.5336 259.065 41.5694C258.529 41.6052 258.015 41.7991 257.59 42.1265C257.164 42.454 256.845 42.9003 256.673 43.409C256.559 43.747 256.512 44.1043 256.536 44.4603C256.56 44.8163 256.653 45.1642 256.812 45.484C256.97 45.8038 257.19 46.0893 257.458 46.3241C257.727 46.5589 258.039 46.7385 258.377 46.8526Z" fill="#EB236B" stroke="white" stroke-width="1.16" stroke-miterlimit="10"/>
<path d="M66.712 47.0734C67.9447 47.0734 68.944 46.0741 68.944 44.8414C68.944 43.6087 67.9447 42.6094 66.712 42.6094C65.4793 42.6094 64.48 43.6087 64.48 44.8414C64.48 46.0741 65.4793 47.0734 66.712 47.0734Z" fill="#EB236B" stroke="white" stroke-miterlimit="10"/>
<path d="M74.9401 47.6117C74.3303 49.4279 73.1379 50.9919 71.5479 52.0607C69.958 53.1296 68.0596 53.6435 66.1476 53.5227C64.2356 53.4018 62.417 52.6529 60.9743 51.3924C59.5317 50.1318 58.5456 48.4301 58.1694 46.5516C57.7931 44.6731 58.0477 42.723 58.8936 41.004C59.7396 39.2851 61.1294 37.8936 62.8474 37.0457C64.5654 36.1978 66.5152 35.9409 68.3942 36.315C70.2731 36.689 71.9759 37.6731 73.2382 39.1143" stroke="white" stroke-width="1.6"/>
<path d="M71.4742 46.473C71.1134 47.5406 70.4103 48.4593 69.4741 49.0866C68.5379 49.7139 67.4208 50.0146 66.2962 49.9422C65.1716 49.8697 64.1023 49.4282 63.2543 48.686C62.4063 47.9438 61.8269 46.9425 61.6061 45.8374C61.3852 44.7323 61.5353 43.5852 62.033 42.5741C62.5306 41.563 63.3481 40.7445 64.3585 40.2454C65.3689 39.7463 66.5157 39.5946 67.6211 39.8139C68.7265 40.0332 69.7286 40.6112 70.472 41.4582" stroke="white" stroke-width="1.6"/>
<path d="M79.64 44.2037C79.0026 43.9757 78.422 43.6127 77.9381 43.1394C74.9855 40.2407 77.5239 36.0085 79.9837 34.907C82.9114 33.6067 84.953 33.938 86.2491 33.1968C86.9283 32.8075 87.5743 32.294 88.0919 32.3685C88.3497 32.4363 88.6233 32.4097 88.8632 32.2935C89.1032 32.1773 89.2937 31.9792 89.4005 31.735C89.5461 31.509 89.714 31.2982 89.9015 31.1055C90.3079 30.7288 90.7963 30.4519 91.3282 30.2967C91.86 30.1414 92.4208 30.1121 92.9659 30.2111H93.0322C93.0322 30.2111 91.7195 30.5631 91.3261 31.267C91.3031 31.3021 91.2876 31.3415 91.2804 31.3828C91.2733 31.4241 91.2748 31.4665 91.2847 31.5072C91.3131 31.5851 91.3691 31.6499 91.442 31.6894C91.6325 31.7515 91.7236 31.6397 91.8561 31.4617C92.0315 31.2258 92.274 31.0483 92.5518 30.9523L92.8127 30.8736L92.6429 31.1055C92.4553 31.3119 92.3506 31.5803 92.3489 31.8592C92.6222 32.1035 92.9038 31.8592 93.0073 31.6563C93.0612 31.5693 94.3035 29.5858 97.2229 30.0785C97.2229 30.0785 94.7052 31.1594 94.701 31.4824C94.7001 31.5307 94.7095 31.5786 94.7288 31.623C94.7481 31.6673 94.7768 31.7069 94.8128 31.7391C94.8403 31.7697 94.8771 31.7904 94.9176 31.7979C94.958 31.8054 94.9998 31.7993 95.0364 31.7805C95.1416 31.6935 95.2625 31.6274 95.3926 31.5859C95.522 31.5734 95.6524 31.5734 95.7818 31.5859C96.0786 31.5712 96.3723 31.5183 96.6556 31.4285C96.6059 31.4865 96.6556 31.5817 96.7384 31.5983C96.815 31.6062 96.8921 31.5888 96.9579 31.5486C97.1711 31.461 97.3913 31.3917 97.6163 31.3416C97.8336 31.3185 98.0493 31.2825 98.2623 31.2339C98.4214 31.1632 98.5863 31.1064 98.7551 31.0641C98.8918 31.0393 99.0367 31.0641 99.1692 31.0393C99.3017 31.0144 99.5046 30.9482 99.6744 30.915C99.8442 30.8819 100.026 30.915 100.2 30.8861C101.085 30.7937 101.979 30.8384 102.851 31.0186C103.434 31.1332 104.029 31.1804 104.623 31.1594L105 31.118L104.693 31.3209C103.981 31.7929 103.174 31.735 102.387 31.706C101.883 31.6517 101.374 31.6685 100.875 31.7557C100.71 31.8008 100.55 31.8647 100.399 31.9462L100.171 32.058C99.691 32.2774 99.2023 32.4721 98.7137 32.6998C98.225 32.9276 97.7695 33.1471 97.3016 33.3831C97.1673 33.446 97.0396 33.5223 96.9206 33.6109C96.8465 33.6748 96.7676 33.7329 96.6846 33.7848C96.5935 33.8386 96.4858 33.8593 96.3906 33.909C96.2714 33.9872 96.1616 34.0789 96.0634 34.1823C95.9269 34.2849 95.762 34.3427 95.5913 34.348C95.3305 34.3728 95.14 34.3977 95.1524 34.5426C95.1553 34.5736 95.1684 34.6027 95.1897 34.6254C95.289 34.7082 95.6038 34.7993 96.7136 34.4266L97.1856 34.2693L96.7715 34.5923C96.1358 35.077 95.3554 35.3337 94.5561 35.3211C94.5207 35.3264 94.4868 35.3391 94.4567 35.3584L94.5105 35.4371C94.5748 35.5049 94.6142 35.5925 94.6223 35.6855C94.6236 35.7377 94.6042 35.7883 94.5685 35.8263L94.4857 35.9009L94.4484 35.7683C94.3987 35.6618 94.3156 35.5743 94.2118 35.519C94.108 35.4637 93.989 35.4437 93.8728 35.4619C93.7237 35.4619 93.3842 35.5986 93.5125 36.2611C93.5142 36.2767 93.5191 36.2918 93.527 36.3053C93.5348 36.3189 93.5454 36.3306 93.5581 36.3398C94.0509 36.7539 96.8958 36.1742 97.9476 35.9257L98.3037 35.8346L98.0221 36.0831C96.6473 37.3005 95.1731 37.4579 93.9846 37.5738C92.059 37.7768 91.9472 38.6629 91.1687 40.5264C90.6398 41.7441 89.6604 42.71 88.4356 43.2222C86.0752 44.2782 83.2137 44.9656 80.4848 44.4645C80.1969 44.3994 79.9145 44.3122 79.64 44.2037Z" fill="#EB236B" stroke="white" stroke-width="1.6" stroke-miterlimit="10"/>
<path d="M79.3215 43.3299C78.8369 43.1153 78.4325 42.7529 78.1662 42.2946C77.2013 40.1496 77.7976 39.28 78.2987 38.4062C78.3856 38.2571 78.6672 38.0418 78.7128 37.9134C79.8681 36.9196 80.6466 36.7829 81.9055 37.0189C83.0857 37.2426 83.7938 36.0955 84.9119 36.0085C84.6634 36.1324 84.4743 36.3499 84.386 36.6131C84.471 36.6205 84.5565 36.6099 84.6371 36.5821C84.7177 36.5543 84.7916 36.5098 84.8539 36.4516C84.9119 36.5137 84.8001 36.6048 84.8043 36.6918C84.8084 36.7788 84.9119 36.8078 84.9865 36.7788C85.0575 36.7409 85.1174 36.6853 85.1604 36.6173C85.6366 36.0002 86.1915 35.9671 86.8872 35.8512C86.6383 35.8749 86.3984 35.9572 86.1874 36.0914C86.0842 36.1595 86.0061 36.2595 85.965 36.3761C85.9239 36.4927 85.922 36.6196 85.9596 36.7374C85.9016 36.609 89.3263 36.199 89.6369 36.1245C90.059 35.9822 90.4352 35.7291 90.726 35.3915C90.5221 35.6717 90.3022 35.9399 90.0675 36.1949C89.688 36.4207 89.2643 36.5619 88.8252 36.609C88.2779 36.7616 87.759 37.0022 87.2889 37.3212C87.1274 37.4206 86.3282 38.1495 86.1335 38.0956C86.4354 38.1338 86.7416 38.0743 87.0073 37.9258C86.8251 38.0128 86.6305 38.2902 86.4731 38.4145C86.2952 38.5898 86.0736 38.7143 85.8312 38.7747C85.6532 38.8037 85.4999 38.8203 85.5248 39.0895C85.5662 39.5036 86.4441 39.2427 86.6594 38.9031C86.6181 39.0711 86.5273 39.2228 86.3989 39.3387C86.2704 39.4546 86.1102 39.5293 85.9389 39.5533C85.5986 39.5687 85.2668 39.6637 84.9699 39.8307C84.7084 40.1302 84.5375 40.4979 84.4771 40.8908C84.1318 41.7567 83.4637 42.4545 82.6136 42.8371C81.6405 43.3051 80.3692 43.6446 79.3215 43.3299Z" fill="#5D00F5" stroke="white" stroke-miterlimit="10"/>
<path d="M76 89.4508C67.9396 88.8476 67.2069 81 67.2069 81C67.2069 81 67.2069 88.8051 59 89.4791C59 89.4791 65.9465 89.4791 67.2069 95.9999C67.2069 96.0283 68.5698 88.4716 76 89.4508Z" fill="white" fill-opacity="0.6" stroke="white" stroke-width="2" stroke-miterlimit="10"/>
<path d="M158 29.324C150.888 28.8013 150.241 22 150.241 22C150.241 22 150.241 28.7644 143 29.3486C143 29.3486 149.129 29.3486 150.241 34.9999C150.241 35.0245 151.444 28.4754 158 29.324Z" fill="white" fill-opacity="0.7" stroke="white" stroke-width="2" stroke-miterlimit="10"/>
<line x1="180.334" y1="243.254" x2="273.334" y2="160.254" stroke="#4BD0A0" stroke-width="2"/>
<path d="M34.38 128.2H45.77C48.558 128.2 50.5867 128.755 51.856 129.866C53.1253 130.954 53.76 132.518 53.76 134.558C53.76 135.782 53.4427 136.836 52.808 137.72C52.1733 138.581 51.312 139.205 50.224 139.59C51.6293 139.907 52.74 140.553 53.556 141.528C54.372 142.48 54.78 143.727 54.78 145.268C54.78 147.353 54.0887 148.997 52.706 150.198C51.346 151.399 49.1473 152 46.11 152H34.38V128.2ZM44.75 147.308C46.2233 147.308 47.2433 147.093 47.81 146.662C48.3767 146.209 48.66 145.517 48.66 144.588C48.66 143.659 48.3653 142.967 47.776 142.514C47.2093 142.061 46.178 141.834 44.682 141.834H40.5V147.308H44.75ZM44.274 137.686C45.5887 137.686 46.4727 137.482 46.926 137.074C47.402 136.643 47.64 136.043 47.64 135.272C47.64 134.479 47.402 133.889 46.926 133.504C46.4727 133.096 45.6 132.892 44.308 132.892H40.5V137.686H44.274ZM57.6727 133.98H62.9087V139.828H65.8327C68.19 139.828 69.9693 140.327 71.1707 141.324C72.372 142.321 72.9727 143.851 72.9727 145.914C72.9727 146.821 72.8367 147.648 72.5647 148.396C72.3153 149.144 71.896 149.79 71.3067 150.334C70.74 150.855 70.0033 151.263 69.0967 151.558C68.2127 151.853 67.1247 152 65.8327 152H57.6727V133.98ZM65.1527 148.056C66.082 148.056 66.7393 147.886 67.1247 147.546C67.5327 147.183 67.7367 146.639 67.7367 145.914C67.7367 145.166 67.5327 144.622 67.1247 144.282C66.7393 143.942 66.082 143.772 65.1527 143.772H62.9087V148.056H65.1527ZM74.5367 133.98H79.7727V152H74.5367V133.98ZM91.8427 152.442C90.528 152.442 89.304 152.227 88.1707 151.796C87.06 151.343 86.0967 150.685 85.2807 149.824C84.4647 148.94 83.8187 147.852 83.3427 146.56C82.8893 145.245 82.6627 143.715 82.6627 141.97V141.29C82.6627 139.273 82.8213 137.471 83.1387 135.884C83.4787 134.297 84.0227 132.949 84.7707 131.838C85.5413 130.705 86.5387 129.832 87.7627 129.22C88.9867 128.585 90.5053 128.223 92.3187 128.132C93.0213 128.109 93.724 128.087 94.4267 128.064C95.152 128.041 95.832 128.007 96.4667 127.962C97.124 127.917 97.7247 127.849 98.2687 127.758C98.8127 127.667 99.2773 127.531 99.6627 127.35V131.838C99.4813 131.951 99.2207 132.053 98.8807 132.144C98.5633 132.212 98.1327 132.28 97.5887 132.348C97.0447 132.416 96.3873 132.473 95.6167 132.518C94.846 132.563 93.9167 132.597 92.8287 132.62C91.8313 132.62 90.97 132.722 90.2447 132.926C89.542 133.13 88.9413 133.459 88.4427 133.912C87.9667 134.343 87.5927 134.909 87.3207 135.612C87.0487 136.292 86.856 137.119 86.7427 138.094C87.2413 137.187 88.0233 136.428 89.0887 135.816C90.154 135.204 91.582 134.898 93.3727 134.898C94.4833 134.898 95.5033 135.068 96.4327 135.408C97.3847 135.725 98.2007 136.213 98.8807 136.87C99.5607 137.505 100.082 138.321 100.445 139.318C100.83 140.293 101.023 141.426 101.023 142.718V143.364C101.023 144.792 100.785 146.073 100.309 147.206C99.8327 148.339 99.1867 149.291 98.3707 150.062C97.5547 150.833 96.58 151.422 95.4467 151.83C94.336 152.238 93.1347 152.442 91.8427 152.442ZM91.8427 148.09C93.0667 148.09 94.0073 147.705 94.6647 146.934C95.322 146.141 95.6507 145.109 95.6507 143.84V143.126C95.6507 141.789 95.3107 140.757 94.6307 140.032C93.9507 139.284 93.0213 138.91 91.8427 138.91C90.6867 138.91 89.7573 139.273 89.0547 139.998C88.3747 140.723 88.0347 141.766 88.0347 143.126V143.704C88.0347 145.019 88.3973 146.084 89.1227 146.9C89.848 147.693 90.7547 148.09 91.8427 148.09ZM103.759 133.98H108.859V144.86L116.509 133.98H121.099V152H115.999V141.12L108.349 152H103.759V133.98ZM124.511 133.98H129.339V136.428C129.565 136.065 129.849 135.714 130.189 135.374C130.551 135.011 130.971 134.694 131.447 134.422C131.923 134.15 132.455 133.935 133.045 133.776C133.634 133.617 134.269 133.538 134.949 133.538C137.487 133.538 139.414 134.286 140.729 135.782C142.043 137.278 142.701 139.511 142.701 142.48V143.16C142.701 144.701 142.519 146.05 142.157 147.206C141.794 148.362 141.273 149.325 140.593 150.096C139.913 150.867 139.097 151.456 138.145 151.864C137.193 152.249 136.127 152.442 134.949 152.442C133.929 152.442 132.954 152.215 132.025 151.762C131.118 151.286 130.359 150.606 129.747 149.722V158.8H124.511V133.98ZM133.691 148.124C134.733 148.124 135.595 147.705 136.275 146.866C136.977 146.027 137.329 144.792 137.329 143.16V142.48C137.329 140.916 136.989 139.76 136.309 139.012C135.651 138.241 134.779 137.856 133.691 137.856C132.58 137.856 131.639 138.207 130.869 138.91C130.121 139.59 129.747 140.61 129.747 141.97V143.67C129.747 145.098 130.121 146.197 130.869 146.968C131.639 147.739 132.58 148.124 133.691 148.124ZM151.039 152.442C150.064 152.442 149.191 152.295 148.421 152C147.673 151.705 147.038 151.309 146.517 150.81C145.995 150.289 145.599 149.688 145.327 149.008C145.055 148.305 144.919 147.546 144.919 146.73C144.919 144.939 145.463 143.568 146.551 142.616C147.661 141.664 149.327 141.188 151.549 141.188H156.683V140.44C156.683 139.352 156.422 138.604 155.901 138.196C155.379 137.765 154.665 137.55 153.759 137.55C152.897 137.55 152.263 137.686 151.855 137.958C151.447 138.23 151.22 138.661 151.175 139.25H145.939C145.984 138.434 146.188 137.686 146.551 137.006C146.913 136.303 147.423 135.703 148.081 135.204C148.761 134.683 149.588 134.275 150.563 133.98C151.537 133.685 152.659 133.538 153.929 133.538C155.107 133.538 156.184 133.674 157.159 133.946C158.156 134.195 159.006 134.615 159.709 135.204C160.411 135.771 160.955 136.519 161.341 137.448C161.726 138.355 161.919 139.465 161.919 140.78V147.41C161.919 148.362 161.941 149.201 161.987 149.926C162.032 150.629 162.1 151.32 162.191 152H157.227C157.181 151.615 157.136 151.275 157.091 150.98C157.068 150.685 157.057 150.323 157.057 149.892C156.513 150.617 155.753 151.229 154.779 151.728C153.827 152.204 152.58 152.442 151.039 152.442ZM152.739 148.77C153.849 148.77 154.779 148.453 155.527 147.818C156.297 147.183 156.683 146.311 156.683 145.2V144.452H152.569C151.798 144.452 151.22 144.656 150.835 145.064C150.472 145.472 150.291 145.948 150.291 146.492C150.291 147.149 150.472 147.693 150.835 148.124C151.22 148.555 151.855 148.77 152.739 148.77ZM165.151 133.98H170.251V144.86L177.901 133.98H182.491V152H177.391V141.12L169.741 152H165.151V133.98ZM173.821 132.11C171.6 132.11 170.025 131.691 169.095 130.852C168.166 129.991 167.701 128.71 167.701 127.01H172.325C172.325 127.781 172.45 128.313 172.699 128.608C172.949 128.903 173.323 129.05 173.821 129.05C174.32 129.05 174.694 128.903 174.943 128.608C175.193 128.313 175.317 127.781 175.317 127.01H179.941C179.941 128.71 179.477 129.991 178.547 130.852C177.618 131.691 176.043 132.11 173.821 132.11ZM202.903 152.442C201.566 152.442 200.33 152.249 199.197 151.864C198.086 151.479 197.123 150.901 196.307 150.13C195.491 149.359 194.856 148.396 194.403 147.24C193.95 146.084 193.723 144.724 193.723 143.16V142.48C193.723 141.052 193.961 139.783 194.437 138.672C194.936 137.561 195.593 136.632 196.409 135.884C197.248 135.113 198.222 134.535 199.333 134.15C200.444 133.742 201.634 133.538 202.903 133.538C204.263 133.538 205.453 133.719 206.473 134.082C207.516 134.445 208.388 134.943 209.091 135.578C209.794 136.19 210.338 136.915 210.723 137.754C211.108 138.593 211.335 139.488 211.403 140.44H206.031C205.85 139.624 205.51 139.001 205.011 138.57C204.535 138.117 203.832 137.89 202.903 137.89C201.792 137.89 200.874 138.275 200.149 139.046C199.446 139.794 199.095 140.939 199.095 142.48V143.16C199.095 144.837 199.435 146.073 200.115 146.866C200.818 147.659 201.747 148.056 202.903 148.056C203.696 148.056 204.365 147.852 204.909 147.444C205.476 147.013 205.85 146.379 206.031 145.54H211.403C211.335 146.605 211.086 147.569 210.655 148.43C210.224 149.269 209.635 149.983 208.887 150.572C208.162 151.161 207.289 151.626 206.269 151.966C205.272 152.283 204.15 152.442 202.903 152.442ZM213.96 133.98H223.616C224.794 133.98 225.803 134.105 226.642 134.354C227.503 134.581 228.194 134.909 228.716 135.34C229.26 135.771 229.656 136.281 229.906 136.87C230.155 137.437 230.28 138.06 230.28 138.74C230.28 139.601 230.03 140.406 229.532 141.154C229.033 141.879 228.319 142.367 227.39 142.616C228.5 142.888 229.373 143.409 230.008 144.18C230.642 144.951 230.96 145.846 230.96 146.866C230.96 148.43 230.404 149.677 229.294 150.606C228.183 151.535 226.517 152 224.296 152H213.96V133.98ZM223.004 148.056C224.817 148.056 225.724 147.501 225.724 146.39C225.724 145.257 224.817 144.69 223.004 144.69H219.196V148.056H223.004ZM222.698 141.018C223.604 141.018 224.216 140.882 224.534 140.61C224.874 140.315 225.044 139.93 225.044 139.454C225.044 138.955 224.874 138.581 224.534 138.332C224.194 138.06 223.582 137.924 222.698 137.924H219.196V141.018H222.698ZM242.182 152.442C240.913 152.442 239.723 152.261 238.612 151.898C237.502 151.513 236.527 150.935 235.688 150.164C234.85 149.393 234.192 148.43 233.716 147.274C233.24 146.095 233.002 144.724 233.002 143.16V142.48C233.002 141.007 233.24 139.715 233.716 138.604C234.192 137.493 234.85 136.564 235.688 135.816C236.527 135.068 237.502 134.501 238.612 134.116C239.723 133.731 240.913 133.538 242.182 133.538C243.452 133.538 244.642 133.731 245.752 134.116C246.863 134.501 247.838 135.068 248.676 135.816C249.515 136.564 250.172 137.493 250.648 138.604C251.124 139.715 251.362 141.007 251.362 142.48V143.16C251.362 144.701 251.124 146.061 250.648 147.24C250.172 148.396 249.515 149.359 248.676 150.13C247.838 150.901 246.863 151.479 245.752 151.864C244.642 152.249 243.452 152.442 242.182 152.442ZM242.182 148.09C243.406 148.09 244.347 147.648 245.004 146.764C245.662 145.88 245.99 144.679 245.99 143.16V142.48C245.99 141.12 245.662 140.021 245.004 139.182C244.347 138.321 243.406 137.89 242.182 137.89C240.958 137.89 240.018 138.321 239.36 139.182C238.703 140.021 238.374 141.12 238.374 142.48V143.16C238.374 144.724 238.703 145.937 239.36 146.798C240.018 147.659 240.958 148.09 242.182 148.09ZM254.069 133.98H259.305V140.678H260.597C260.756 139.499 261.084 138.468 261.583 137.584C262.082 136.7 262.705 135.963 263.453 135.374C264.201 134.762 265.062 134.309 266.037 134.014C267.012 133.697 268.066 133.538 269.199 133.538C270.468 133.538 271.636 133.731 272.701 134.116C273.789 134.501 274.73 135.068 275.523 135.816C276.316 136.564 276.928 137.493 277.359 138.604C277.812 139.715 278.039 141.007 278.039 142.48V143.16C278.039 144.701 277.812 146.061 277.359 147.24C276.928 148.396 276.316 149.359 275.523 150.13C274.73 150.901 273.789 151.479 272.701 151.864C271.636 152.249 270.468 152.442 269.199 152.442C268.066 152.442 267 152.295 266.003 152C265.028 151.683 264.167 151.218 263.419 150.606C262.671 149.994 262.048 149.223 261.549 148.294C261.073 147.342 260.756 146.231 260.597 144.962H259.305V152H254.069V133.98ZM269.199 148.09C270.332 148.09 271.194 147.648 271.783 146.764C272.372 145.88 272.667 144.679 272.667 143.16V142.48C272.667 141.12 272.372 140.021 271.783 139.182C271.194 138.321 270.332 137.89 269.199 137.89C268.066 137.89 267.204 138.321 266.615 139.182C266.026 140.021 265.731 141.12 265.731 142.48V143.16C265.731 144.724 266.026 145.937 266.615 146.798C267.204 147.659 268.066 148.09 269.199 148.09ZM42.2 193.442C40.9307 193.442 39.7407 193.261 38.63 192.898C37.5193 192.513 36.5447 191.935 35.706 191.164C34.8673 190.393 34.21 189.43 33.734 188.274C33.258 187.095 33.02 185.724 33.02 184.16V183.48C33.02 182.007 33.258 180.715 33.734 179.604C34.21 178.493 34.8673 177.564 35.706 176.816C36.5447 176.068 37.5193 175.501 38.63 175.116C39.7407 174.731 40.9307 174.538 42.2 174.538C43.4693 174.538 44.6593 174.731 45.77 175.116C46.8807 175.501 47.8553 176.068 48.694 176.816C49.5327 177.564 50.19 178.493 50.666 179.604C51.142 180.715 51.38 182.007 51.38 183.48V184.16C51.38 185.701 51.142 187.061 50.666 188.24C50.19 189.396 49.5327 190.359 48.694 191.13C47.8553 191.901 46.8807 192.479 45.77 192.864C44.6593 193.249 43.4693 193.442 42.2 193.442ZM42.2 189.09C43.424 189.09 44.3647 188.648 45.022 187.764C45.6793 186.88 46.008 185.679 46.008 184.16V183.48C46.008 182.12 45.6793 181.021 45.022 180.182C44.3647 179.321 43.424 178.89 42.2 178.89C40.976 178.89 40.0353 179.321 39.378 180.182C38.7207 181.021 38.392 182.12 38.392 183.48V184.16C38.392 185.724 38.7207 186.937 39.378 187.798C40.0353 188.659 40.976 189.09 42.2 189.09ZM54.0867 174.98H58.9147V177.428C59.1414 177.065 59.4247 176.714 59.7647 176.374C60.1274 176.011 60.5467 175.694 61.0227 175.422C61.4987 175.15 62.0314 174.935 62.6207 174.776C63.2101 174.617 63.8447 174.538 64.5247 174.538C67.0634 174.538 68.9901 175.286 70.3047 176.782C71.6194 178.278 72.2767 180.511 72.2767 183.48V184.16C72.2767 185.701 72.0954 187.05 71.7327 188.206C71.3701 189.362 70.8487 190.325 70.1687 191.096C69.4887 191.867 68.6727 192.456 67.7207 192.864C66.7687 193.249 65.7034 193.442 64.5247 193.442C63.5047 193.442 62.5301 193.215 61.6007 192.762C60.6941 192.286 59.9347 191.606 59.3227 190.722V199.8H54.0867V174.98ZM63.2667 189.124C64.3094 189.124 65.1707 188.705 65.8507 187.866C66.5534 187.027 66.9047 185.792 66.9047 184.16V183.48C66.9047 181.916 66.5647 180.76 65.8847 180.012C65.2274 179.241 64.3547 178.856 63.2667 178.856C62.1561 178.856 61.2154 179.207 60.4447 179.91C59.6967 180.59 59.3227 181.61 59.3227 182.97V184.67C59.3227 186.098 59.6967 187.197 60.4447 187.968C61.2154 188.739 62.1561 189.124 63.2667 189.124ZM83.6747 193.442C82.36 193.442 81.136 193.227 80.0027 192.796C78.892 192.343 77.9287 191.685 77.1127 190.824C76.2967 189.94 75.6507 188.852 75.1747 187.56C74.7214 186.245 74.4947 184.715 74.4947 182.97V182.29C74.4947 180.273 74.6534 178.471 74.9707 176.884C75.3107 175.297 75.8547 173.949 76.6027 172.838C77.3734 171.705 78.3707 170.832 79.5947 170.22C80.8187 169.585 82.3374 169.223 84.1507 169.132C84.8534 169.109 85.556 169.087 86.2587 169.064C86.984 169.041 87.664 169.007 88.2987 168.962C88.956 168.917 89.5567 168.849 90.1007 168.758C90.6447 168.667 91.1094 168.531 91.4947 168.35V172.838C91.3134 172.951 91.0527 173.053 90.7127 173.144C90.3954 173.212 89.9647 173.28 89.4207 173.348C88.8767 173.416 88.2194 173.473 87.4487 173.518C86.678 173.563 85.7487 173.597 84.6607 173.62C83.6634 173.62 82.802 173.722 82.0767 173.926C81.374 174.13 80.7734 174.459 80.2747 174.912C79.7987 175.343 79.4247 175.909 79.1527 176.612C78.8807 177.292 78.688 178.119 78.5747 179.094C79.0734 178.187 79.8554 177.428 80.9207 176.816C81.986 176.204 83.414 175.898 85.2047 175.898C86.3154 175.898 87.3354 176.068 88.2647 176.408C89.2167 176.725 90.0327 177.213 90.7127 177.87C91.3927 178.505 91.914 179.321 92.2767 180.318C92.662 181.293 92.8547 182.426 92.8547 183.718V184.364C92.8547 185.792 92.6167 187.073 92.1407 188.206C91.6647 189.339 91.0187 190.291 90.2027 191.062C89.3867 191.833 88.412 192.422 87.2787 192.83C86.168 193.238 84.9667 193.442 83.6747 193.442ZM83.6747 189.09C84.8987 189.09 85.8394 188.705 86.4967 187.934C87.154 187.141 87.4827 186.109 87.4827 184.84V184.126C87.4827 182.789 87.1427 181.757 86.4627 181.032C85.7827 180.284 84.8534 179.91 83.6747 179.91C82.5187 179.91 81.5894 180.273 80.8867 180.998C80.2067 181.723 79.8667 182.766 79.8667 184.126V184.704C79.8667 186.019 80.2294 187.084 80.9547 187.9C81.68 188.693 82.5867 189.09 83.6747 189.09ZM95.5906 174.98H100.691V185.86L108.341 174.98H112.931V193H107.831V182.12L100.181 193H95.5906V174.98ZM120.865 179.264H115.323V174.98H131.643V179.264H126.101V193H120.865V179.264ZM138.241 200.242C137.901 200.242 137.561 200.208 137.221 200.14V195.788C137.561 195.856 137.901 195.89 138.241 195.89C138.898 195.89 139.408 195.663 139.771 195.21C140.133 194.779 140.519 194.031 140.927 192.966L133.311 174.98H139.091L143.579 186.982L147.829 174.98H153.031L146.129 193C145.63 194.269 145.154 195.357 144.701 196.264C144.247 197.193 143.726 197.953 143.137 198.542C142.57 199.131 141.89 199.562 141.097 199.834C140.326 200.106 139.374 200.242 138.241 200.242Z" fill="white"/>
<line x1="115.334" y1="242.254" x2="208.334" y2="159.254" stroke="#4BD0A0" stroke-width="2"/>
<line x1="-59.6659" y1="236.254" x2="33.3341" y2="153.254" stroke="#4BD0A0" stroke-width="2"/>
<line x1="-65.6659" y1="261.254" x2="27.3341" y2="178.254" stroke="#4BD0A0" stroke-width="2"/>
<path d="M174 85.5046V84.649H173.301C173.237 84.2821 173.09 83.9345 172.873 83.6317L173.349 83.1564L172.74 82.5527L172.265 83.028C171.963 82.8141 171.617 82.6711 171.252 82.6097V81.9205H170.387V82.6525C170.022 82.7138 169.676 82.8568 169.375 83.0708L168.871 82.5955L168.267 83.1992L168.766 83.6745C168.549 83.9773 168.403 84.3249 168.338 84.6918H167.64V85.5046H168.334C168.399 85.8816 168.549 86.2389 168.771 86.5504L168.296 87.0258L168.899 87.6342L169.375 87.1589C169.681 87.376 170.032 87.5222 170.401 87.5867V88.2759H171.262V87.5867C171.631 87.5213 171.982 87.3752 172.289 87.1589L172.764 87.6342L173.372 87.0258L172.897 86.5504C173.112 86.244 173.255 85.893 173.315 85.5236L174 85.5046ZM170.815 86.2652C170.584 86.2652 170.358 86.1966 170.165 86.0681C169.973 85.9396 169.823 85.757 169.735 85.5433C169.646 85.3297 169.623 85.0945 169.668 84.8677C169.713 84.6409 169.825 84.4325 169.988 84.269C170.152 84.1054 170.36 83.9941 170.587 83.9489C170.814 83.9038 171.049 83.927 171.263 84.0155C171.476 84.104 171.659 84.2539 171.787 84.4462C171.916 84.6385 171.984 84.8646 171.984 85.0958C171.984 85.406 171.861 85.7034 171.642 85.9227C171.423 86.142 171.125 86.2652 170.815 86.2652Z" fill="#5005F2"/>
<path d="M169.945 84.3495C171.547 85.8326 172.042 87.1399 172.042 88.9842C172.042 94.4983 163.842 98.9666 153.726 98.9666C143.611 98.9666 135.406 94.4983 135.406 88.9842C135.406 83.4701 143.611 79.0018 153.726 79.0018C159.73 79.0018 165.059 80.58 168.401 83.009" stroke="white" stroke-width="0.97" stroke-miterlimit="10" stroke-dasharray="7.75 7.75"/>
<path d="M149.448 106.344L149.282 105.137L148.293 105.279C148.126 104.776 147.848 104.316 147.48 103.934L148.079 103.131L147.1 102.403L146.501 103.207C146.027 102.972 145.508 102.844 144.98 102.831L144.832 101.833L143.625 102.009L143.772 103.007C143.27 103.173 142.811 103.447 142.427 103.811L141.619 103.212L140.892 104.191L141.695 104.79C141.454 105.261 141.322 105.781 141.31 106.311L140.321 106.458L140.502 107.666L141.481 107.523C141.645 108.03 141.921 108.493 142.289 108.878L141.676 109.672L142.655 110.399L143.245 109.61C143.721 109.853 144.246 109.986 144.78 110L144.923 110.95L146.13 110.77L145.988 109.819C146.495 109.652 146.959 109.374 147.347 109.006L148.136 109.591L148.863 108.612L148.074 108.022C148.312 107.544 148.442 107.02 148.455 106.487L149.448 106.344ZM145.141 108.165C144.791 108.217 144.434 108.163 144.114 108.012C143.795 107.861 143.527 107.618 143.346 107.314C143.164 107.011 143.077 106.66 143.094 106.307C143.112 105.954 143.234 105.613 143.446 105.33C143.657 105.046 143.947 104.831 144.281 104.713C144.614 104.594 144.975 104.577 145.318 104.664C145.661 104.751 145.97 104.937 146.207 105.2C146.444 105.463 146.597 105.79 146.648 106.14C146.683 106.372 146.672 106.608 146.615 106.836C146.558 107.064 146.457 107.278 146.317 107.466C146.176 107.654 146.001 107.813 145.799 107.933C145.597 108.053 145.374 108.132 145.141 108.165Z" fill="#4BD0A0"/>
<path d="M146.477 107.138H146.182C137.55 107.138 130.557 101.966 130.557 95.5869C130.557 89.2076 137.55 84.0358 146.182 84.0358C154.814 84.0358 161.807 89.2076 161.807 95.5869C161.807 101.41 155.974 106.225 148.392 107.019" stroke="white" stroke-width="0.97" stroke-miterlimit="10" stroke-dasharray="7.75 7.75"/>
<path d="M161.232 85.5284L160.69 82.5004L158.218 82.9377C157.763 81.6826 157.032 80.5456 156.079 79.6103L157.529 77.5377L155.005 75.7742L153.56 77.8514C152.354 77.2893 151.04 77.0004 149.709 77.0053L149.282 74.505L146.235 75.0469L146.677 77.5472C145.424 77.9969 144.288 78.7195 143.349 79.6625L141.277 78.2365L139.513 80.7511L141.581 82.1772C141.012 83.3839 140.719 84.7027 140.725 86.037L138.253 86.4744L138.786 89.5024L141.248 89.065C141.698 90.3301 142.426 91.4784 143.378 92.4258L141.952 94.465L144.471 96.2239L145.897 94.1941C147.114 94.7706 148.444 95.0678 149.79 95.064L150.223 97.4978L153.251 96.9606L152.823 94.5268C154.09 94.0715 155.239 93.3372 156.184 92.3782L158.213 93.8043L159.977 91.2849L157.938 89.8589C158.508 88.6458 158.799 87.3203 158.789 85.98L161.232 85.5284ZM150.836 92.2166C149.607 92.4373 148.339 92.2882 147.195 91.7884C146.05 91.2885 145.079 90.4603 144.405 89.4085C143.732 88.3567 143.385 87.1287 143.409 85.8799C143.434 84.631 143.828 83.4175 144.542 82.3928C145.257 81.3682 146.259 80.5785 147.423 80.1238C148.586 79.669 149.858 79.5696 151.078 79.8381C152.298 80.1066 153.411 80.731 154.275 81.6323C155.14 82.5335 155.718 83.671 155.937 84.9009C156.229 86.5472 155.855 88.2421 154.899 89.6136C153.943 90.9851 152.482 91.9213 150.836 92.2166Z" fill="#F22786"/>
<path d="M136.922 73.8205V73.1692H136.39C136.342 72.8898 136.232 72.6248 136.066 72.3944L136.447 72.0141L135.971 71.5388L135.591 71.919C135.359 71.7574 135.095 71.6487 134.816 71.6006V71.0777H134.165V71.6148C133.888 71.6627 133.625 71.7715 133.395 71.9333L133.015 71.553L132.539 72.0284L132.92 72.4087C132.755 72.6399 132.643 72.9044 132.592 73.1835H132.064V73.8347H132.592C132.64 74.1147 132.748 74.3808 132.91 74.6143L132.539 74.9851L133.015 75.4604L133.385 75.0896C133.618 75.2544 133.884 75.3649 134.165 75.4129V75.9405H134.816V75.3844C135.097 75.3314 135.361 75.2161 135.591 75.0469L135.962 75.4176L136.437 74.9423L136.062 74.5715C136.225 74.3383 136.335 74.0722 136.385 73.7919L136.922 73.8205ZM134.507 74.3624C134.335 74.3624 134.167 74.3113 134.024 74.2158C133.881 74.1202 133.769 73.9843 133.704 73.8254C133.638 73.6664 133.621 73.4915 133.654 73.3228C133.688 73.154 133.771 72.999 133.892 72.8774C134.014 72.7557 134.169 72.6728 134.338 72.6393C134.506 72.6057 134.681 72.6229 134.84 72.6888C134.999 72.7546 135.135 72.8661 135.231 73.0092C135.326 73.1522 135.377 73.3204 135.377 73.4925C135.377 73.6087 135.354 73.7238 135.309 73.8309C135.264 73.9381 135.197 74.035 135.114 74.1161C135.031 74.1972 134.932 74.2608 134.824 74.3031C134.715 74.3454 134.6 74.3655 134.484 74.3624H134.507Z" fill="#0066FF"/>
<path d="M133.657 73.7634C134.194 73.4657 134.746 73.1959 135.311 72.9553" stroke="white" stroke-width="0.97" stroke-miterlimit="10"/>
<path d="M138.867 71.7955C141.312 71.243 143.813 70.9766 146.32 71.0016C156.436 71.0016 164.635 75.4699 164.635 80.984C164.635 86.4981 156.436 90.9664 146.32 90.9664C136.205 90.9664 128 86.4981 128 80.984C128.048 79.3393 128.713 77.7728 129.863 76.5965" stroke="white" stroke-width="0.97" stroke-miterlimit="10" stroke-dasharray="7.88 7.88"/>
</g>
<defs>
<filter id="filter0_f_202_2" x="211" y="-284" width="604" height="604" filterUnits="userSpaceOnUse" color-interpolation-filters="sRGB">
<feFlood flood-opacity="0" result="BackgroundImageFix"/>
<feBlend mode="normal" in="SourceGraphic" in2="BackgroundImageFix" result="shape"/>
<feGaussianBlur stdDeviation="50" result="effect1_foregroundBlur_202_2"/>
</filter>
<filter id="filter1_f_202_2" x="-55" y="-150" width="320" height="320" filterUnits="userSpaceOnUse" color-interpolation-filters="sRGB">
<feFlood flood-opacity="0" result="BackgroundImageFix"/>
<feBlend mode="normal" in="SourceGraphic" in2="BackgroundImageFix" result="shape"/>
<feGaussianBlur stdDeviation="30" result="effect1_foregroundBlur_202_2"/>
</filter>
<clipPath id="clip0_202_2">
<rect width="700" height="220" fill="white"/>
</clipPath>
<clipPath id="clip1_202_2">
<rect width="383" height="196" fill="white" transform="matrix(-1 0 0 1 694 8)"/>
</clipPath>
</defs>
</svg>
