<svg width="37" height="21" viewBox="0 0 37 21" fill="none" xmlns="http://www.w3.org/2000/svg">
<path d="M5.81152 7.57031H30.8437V15.1133C30.8437 16.3066 30.3696 17.451 29.5258 18.2948C28.6821 19.1386 27.5376 19.6126 26.3443 19.6126H10.3161C9.12285 19.6126 7.97843 19.1386 7.13464 18.2948C6.29085 17.451 5.81682 16.3066 5.81682 15.1133V7.57031H5.81152Z" stroke="black" stroke-miterlimit="10"/>
<path d="M5.81718 7.52275L1.58252 3.24573C1.3347 3.05439 1.15307 2.79022 1.06313 2.49032C0.973198 2.19042 0.979487 1.86988 1.08112 1.57374C1.18275 1.27761 1.37462 1.02076 1.62976 0.839288C1.88489 0.657819 2.19048 0.560862 2.50356 0.562022H8.28917C8.60662 0.561577 8.91607 0.661625 9.17316 0.84785L18.3306 7.57038L5.81718 7.52275Z" stroke="black" stroke-miterlimit="10"/>
<path d="M31.1824 7.52275L35.417 3.24573C35.6649 3.05439 35.8465 2.79022 35.9364 2.49032C36.0264 2.19042 36.0201 1.86988 35.9184 1.57374C35.8168 1.27761 35.6249 1.02076 35.3698 0.839288C35.1147 0.657819 34.8091 0.560862 34.496 0.562022H28.7104C28.3929 0.561577 28.0835 0.661625 27.8264 0.84785L18.6689 7.57038L31.1824 7.52275Z" stroke="black" stroke-miterlimit="10"/>
<path d="M9.39062 11.6038C17.9658 10.9474 18.691 2.35107 18.691 2.35107C18.691 2.35107 18.691 10.9104 27.4091 11.6409C27.4091 11.6409 20.0355 11.6409 18.691 18.7763C18.7228 18.7974 17.2618 10.5134 9.39062 11.6038Z" fill="white" stroke="#010102" stroke-miterlimit="10"/>
</svg>
