<svg width="37" height="23" viewBox="0 0 37 23" fill="none" xmlns="http://www.w3.org/2000/svg">
<path d="M5.81152 10.4004H30.8437V17.9434C30.8437 19.1367 30.3696 20.2811 29.5258 21.1249C28.6821 21.9687 27.5376 22.4427 26.3443 22.4427H10.3161C9.12285 22.4427 7.97843 21.9687 7.13464 21.1249C6.29085 20.2811 5.81682 19.1367 5.81682 17.9434V10.4004H5.81152Z" fill="#61BB9A" stroke="black" stroke-miterlimit="10"/>
<path d="M5.81718 10.3528L1.58252 6.07581C1.3347 5.88446 1.15307 5.62029 1.06313 5.3204C0.973198 5.0205 0.979487 4.69996 1.08112 4.40382C1.18275 4.10769 1.37462 3.85084 1.62976 3.66937C1.88489 3.4879 2.19048 3.39094 2.50356 3.3921H8.28917C8.60662 3.39165 8.91607 3.4917 9.17316 3.67793L18.3306 10.4005L5.81718 10.3528Z" fill="#61BB9A" stroke="black" stroke-miterlimit="10"/>
<path d="M31.1824 10.3528L35.417 6.07581C35.6649 5.88446 35.8465 5.62029 35.9364 5.3204C36.0264 5.0205 36.0201 4.69996 35.9184 4.40382C35.8168 4.10769 35.6249 3.85084 35.3698 3.66937C35.1147 3.4879 34.8091 3.39094 34.496 3.3921H28.7104C28.3929 3.39165 28.0835 3.4917 27.8264 3.67793L18.6689 10.4005L31.1824 10.3528Z" fill="#61BB9A" stroke="black" stroke-miterlimit="10"/>
<path d="M9.39062 14.4339C17.9658 13.7775 18.691 5.18115 18.691 5.18115C18.691 5.18115 18.691 13.7405 27.4091 14.471C27.4091 14.471 20.0355 14.4709 18.691 21.6063C18.7228 21.6275 17.2618 13.3435 9.39062 14.4339Z" fill="white" stroke="#010102" stroke-miterlimit="10"/>
<path d="M9.39062 5.48839C12.0638 5.28195 12.2914 2.60352 12.2914 2.60352C12.2914 2.60352 12.2914 5.25018 15.0068 5.49897C15.0068 5.49897 12.7095 5.49896 12.2914 7.72745C12.302 7.73804 11.8467 5.15491 9.39062 5.48839Z" fill="white" stroke="#010102" stroke-miterlimit="10"/>
<path d="M19.4209 3.71495C22.0993 3.50851 22.3216 0.830078 22.3216 0.830078C22.3216 0.830078 22.3216 3.47674 25.0424 3.72553C25.0424 3.72553 22.7398 3.72554 22.3216 5.95403C22.3322 5.96462 21.8823 3.38147 19.4209 3.71495Z" fill="white" stroke="#010102" stroke-miterlimit="10"/>
</svg>
