<svg width="1012" height="521" viewBox="0 0 1012 521" fill="none" xmlns="http://www.w3.org/2000/svg">
<path d="M46.0392 9.75305C46.4697 7.61198 49.5303 7.61198 49.9608 9.75305L52.8308 24.0288C52.9887 24.8143 53.6002 25.4297 54.3846 25.5928L68.5766 28.5418C70.7007 28.9832 70.7007 32.0168 68.5766 32.4582L54.3846 35.4072C53.6002 35.5703 52.9887 36.1857 52.8308 36.9712L49.9608 51.247C49.5303 53.388 46.4697 53.388 46.0392 51.2469L43.1692 36.9712C43.0113 36.1857 42.3998 35.5703 41.6154 35.4072L27.4234 32.4582C25.2993 32.0168 25.2993 28.9832 27.4234 28.5418L41.6154 25.5928C42.3998 25.4297 43.0113 24.8143 43.1692 24.0288L46.0392 9.75305Z" fill="#49D2A4"/>
<path d="M837.553 459.753C837.984 457.612 841.044 457.612 841.475 459.753L844.345 474.029C844.503 474.814 845.114 475.43 845.899 475.593L860.091 478.542C862.215 478.983 862.215 482.017 860.091 482.458L845.899 485.407C845.114 485.57 844.503 486.186 844.345 486.971L841.475 501.247C841.044 503.388 837.984 503.388 837.553 501.247L834.683 486.971C834.525 486.186 833.914 485.57 833.129 485.407L818.937 482.458C816.813 482.017 816.813 478.983 818.937 478.542L833.129 475.593C833.914 475.43 834.525 474.814 834.683 474.029L837.553 459.753Z" fill="#006AFF"/>
<circle cx="886.5" cy="155.5" r="124.5" stroke="#49D2A4"/>
<circle cx="75" cy="445.5" r="74.5" stroke="#006AFF"/>
</svg>
