<svg width="29" height="23" viewBox="0 0 29 23" fill="none" xmlns="http://www.w3.org/2000/svg">
<path d="M18.0363 22C24.0914 22 29 17.0751 29 11C29 4.92488 24.0914 0 18.0363 0C11.9813 0 7.07263 4.92488 7.07263 11C7.07263 17.0751 11.9813 22 18.0363 22Z" fill="#C1C1C1"/>
<path d="M21.381 5.73116C23.5746 5.56119 23.7614 3.35596 23.7614 3.35596C23.7614 3.35596 23.7614 5.53504 25.9897 5.73987C25.9897 5.73987 24.1045 5.73987 23.7614 7.57465C23.7701 7.58337 23.3965 5.4566 21.381 5.73116Z" fill="#484697" stroke="black" stroke-width="0.435816" stroke-miterlimit="10"/>
<path d="M2.70276 11.9847C3.64317 11.9847 4.40552 11.2198 4.40552 10.2763C4.40552 9.33275 3.64317 8.56787 2.70276 8.56787C1.76235 8.56787 1 9.33275 1 10.2763C1 11.2198 1.76235 11.9847 2.70276 11.9847Z" fill="#3463AC" stroke="#010102" stroke-width="0.435816" stroke-miterlimit="10"/>
<path d="M21.3767 11.9847C22.3171 11.9847 23.0794 11.2198 23.0794 10.2763C23.0794 9.33275 22.3171 8.56787 21.3767 8.56787C20.4362 8.56787 19.6739 9.33275 19.6739 10.2763C19.6739 11.2198 20.4362 11.9847 21.3767 11.9847Z" fill="#3463AC" stroke="#010102" stroke-width="0.435816" stroke-miterlimit="10"/>
<path d="M3.5542 17.6685H20.5818C20.5818 17.6685 18.0364 21.9656 11.9551 21.9656C5.87378 21.9656 3.5542 17.6685 3.5542 17.6685Z" fill="#3463AC" stroke="#010102" stroke-width="0.435816" stroke-miterlimit="10"/>
<path d="M12.0028 19.6555C17.1823 19.6555 21.381 15.4428 21.381 10.2462C21.381 5.04959 17.1823 0.836914 12.0028 0.836914C6.82335 0.836914 2.62457 5.04959 2.62457 10.2462C2.62457 15.4428 6.82335 19.6555 12.0028 19.6555Z" fill="white" stroke="black" stroke-width="0.435816" stroke-miterlimit="10"/>
<path d="M18.6748 11.5015C18.6303 13.2605 17.9025 14.9325 16.6467 16.1608C15.391 17.3891 13.7066 18.0765 11.9528 18.0765C10.1991 18.0765 8.5147 17.3891 7.25894 16.1608C6.00318 14.9325 5.27541 13.2605 5.23083 11.5015C5.23083 7.77965 8.24108 6.06689 11.955 6.06689C15.6689 6.06689 18.6748 7.77965 18.6748 11.5015Z" fill="#49D2A4" stroke="black" stroke-width="0.435816" stroke-miterlimit="10"/>
<path d="M11.5234 14.3557C11.5234 14.164 11.5495 13.9897 11.6018 13.8328C11.6628 13.6672 11.7456 13.5146 11.8502 13.3752C11.9548 13.2357 12.0769 13.1006 12.2163 12.9699C12.3645 12.8391 12.5214 12.7084 12.687 12.5776C12.9746 12.3336 13.1969 12.1157 13.3538 11.9239C13.5194 11.7234 13.6022 11.5099 13.6022 11.2832C13.6022 10.9956 13.5151 10.7733 13.3407 10.6164C13.1664 10.4508 12.8962 10.368 12.5301 10.368C12.1815 10.368 11.9156 10.4596 11.7326 10.6426C11.5495 10.8256 11.458 11.0828 11.458 11.414H9.39223C9.39223 11.0392 9.46632 10.6905 9.6145 10.368C9.76268 10.0368 9.97187 9.74917 10.2421 9.50511C10.5123 9.25234 10.8391 9.05622 11.2227 8.91676C11.6149 8.76858 12.0507 8.69449 12.5301 8.69449C13.0357 8.69449 13.4845 8.75987 13.8768 8.89061C14.269 9.02136 14.5959 9.20004 14.8574 9.42667C15.1276 9.65329 15.3281 9.91914 15.4588 10.2242C15.5983 10.5293 15.668 10.8605 15.668 11.2179C15.668 11.4881 15.6331 11.7321 15.5634 11.95C15.5024 12.1679 15.4152 12.3684 15.3019 12.5515C15.1973 12.7258 15.0753 12.887 14.9358 13.0352C14.7964 13.1834 14.6569 13.3185 14.5174 13.4405C14.2908 13.641 14.1121 13.8066 13.9814 13.9374C13.8506 14.0681 13.7504 14.1771 13.6807 14.2642C13.6197 14.3514 13.5804 14.4298 13.563 14.4996C13.5456 14.5606 13.5368 14.6216 13.5368 14.6826V14.8787H11.5234V14.3557ZM12.5301 18.1866C12.1815 18.1866 11.8851 18.0689 11.641 17.8336C11.4057 17.5895 11.288 17.2931 11.288 16.9445C11.288 16.5958 11.4057 16.3038 11.641 16.0685C11.8851 15.8244 12.1815 15.7024 12.5301 15.7024C12.8788 15.7024 13.1708 15.8244 13.4061 16.0685C13.6502 16.3038 13.7722 16.5958 13.7722 16.9445C13.7722 17.2931 13.6502 17.5895 13.4061 17.8336C13.1708 18.0689 12.8788 18.1866 12.5301 18.1866Z" fill="white"/>
<path d="M11.6018 13.8328L11.3972 13.7574L11.3951 13.7639L11.6018 13.8328ZM12.2163 12.9699L12.0721 12.8064L12.0673 12.8109L12.2163 12.9699ZM12.687 12.5776L12.8221 12.7488L12.828 12.7438L12.687 12.5776ZM13.3538 11.9239L13.1858 11.7851L13.1852 11.7859L13.3538 11.9239ZM13.3407 10.6164L13.1906 10.7745L13.195 10.7784L13.3407 10.6164ZM11.7326 10.6426L11.8867 10.7967V10.7967L11.7326 10.6426ZM11.458 11.414V11.6319H11.6759V11.414H11.458ZM9.39223 11.414H9.17433V11.6319H9.39223V11.414ZM9.6145 10.368L9.81252 10.459L9.81341 10.457L9.6145 10.368ZM10.2421 9.50511L10.3882 9.66685L10.3909 9.66425L10.2421 9.50511ZM11.2227 8.91676L11.2971 9.12157L11.2997 9.12061L11.2227 8.91676ZM13.8768 8.89061L13.8079 9.09734L13.8768 8.89061ZM14.8574 9.42667L14.7146 9.59136L14.7173 9.59363L14.8574 9.42667ZM15.4588 10.2242L15.2584 10.3101L15.2606 10.3148L15.4588 10.2242ZM15.5634 11.95L15.3557 11.8836L15.3536 11.8913L15.5634 11.95ZM15.3019 12.5515L15.1166 12.4368L15.115 12.4394L15.3019 12.5515ZM14.9358 13.0352L15.0945 13.1846V13.1846L14.9358 13.0352ZM14.5174 13.4405L14.3739 13.2765L14.3731 13.2773L14.5174 13.4405ZM13.6807 14.2642L13.5102 14.1278L13.5021 14.1393L13.6807 14.2642ZM13.563 14.4996L13.7726 14.5595L13.7744 14.5524L13.563 14.4996ZM13.5368 14.8787V15.0966H13.7548V14.8787H13.5368ZM11.5234 14.8787H11.3055V15.0966H11.5234V14.8787ZM11.641 17.8336L11.4841 17.9849L11.4898 17.9904L11.641 17.8336ZM13.4061 16.0685L13.2491 16.2199L13.2548 16.2254L13.4061 16.0685ZM13.4061 17.8336L13.5602 17.9876L13.4061 17.8336ZM11.7413 14.3557C11.7413 14.1838 11.7647 14.0331 11.8085 13.9017L11.3951 13.7639C11.3343 13.9462 11.3055 14.1442 11.3055 14.3557H11.7413ZM11.8063 13.9081C11.8601 13.7621 11.9328 13.6282 12.0246 13.5059L11.6759 13.2444C11.5585 13.401 11.4656 13.5722 11.3973 13.7574L11.8063 13.9081ZM12.0246 13.5059C12.1209 13.3775 12.2343 13.2517 12.3654 13.1288L12.0673 12.8109C11.9195 12.9495 11.7888 13.0939 11.6759 13.2444L12.0246 13.5059ZM12.3605 13.1332C12.5055 13.0053 12.6593 12.8771 12.822 12.7486L12.552 12.4066C12.3835 12.5396 12.2235 12.6729 12.0722 12.8065L12.3605 13.1332ZM12.828 12.7438C13.1211 12.4951 13.3541 12.2677 13.5225 12.0619L13.1852 11.7859C13.0397 11.9636 12.8282 12.172 12.546 12.4115L12.828 12.7438ZM13.5218 12.0627C13.7147 11.8292 13.8201 11.5679 13.8201 11.2832H13.3843C13.3843 11.4519 13.3242 11.6176 13.1858 11.7851L13.5218 12.0627ZM13.8201 11.2832C13.8201 10.949 13.7169 10.6618 13.4865 10.4545L13.195 10.7784C13.3132 10.8848 13.3843 11.0423 13.3843 11.2832H13.8201ZM13.4908 10.4585C13.2592 10.2385 12.9236 10.1501 12.5301 10.1501V10.5859C12.8688 10.5859 13.0736 10.6632 13.1906 10.7744L13.4908 10.4585ZM12.5301 10.1501C12.1443 10.1501 11.815 10.252 11.5785 10.4885L11.8867 10.7967C12.0162 10.6671 12.2186 10.5859 12.5301 10.5859V10.1501ZM11.5785 10.4885C11.344 10.723 11.2401 11.0419 11.2401 11.414H11.6759C11.6759 11.1236 11.7551 10.9283 11.8867 10.7967L11.5785 10.4885ZM11.458 11.1961H9.39223V11.6319H11.458V11.1961ZM9.61014 11.414C9.61014 11.0688 9.67817 10.7514 9.81251 10.459L9.41649 10.2771C9.25447 10.6297 9.17433 11.0096 9.17433 11.414H9.61014ZM9.81341 10.457C9.94917 10.1535 10.1403 9.89065 10.3881 9.66682L10.096 9.3434C9.80341 9.60769 9.57618 9.92007 9.41559 10.279L9.81341 10.457ZM10.3909 9.66425C10.6376 9.43353 10.9384 9.252 11.2971 9.12155L11.1482 8.71197C10.7399 8.86044 10.387 9.07115 10.0932 9.34598L10.3909 9.66425ZM11.2997 9.12061C11.664 8.98296 12.0733 8.9124 12.5301 8.9124V8.47659C12.0281 8.47659 11.5658 8.55421 11.1457 8.71291L11.2997 9.12061ZM12.5301 8.9124C13.0173 8.9124 13.4422 8.97544 13.8079 9.09734L13.9457 8.68389C13.5269 8.5443 13.0541 8.47659 12.5301 8.47659V8.9124ZM13.8079 9.09734C14.1782 9.22077 14.4785 9.38671 14.7147 9.59134L15.0001 9.262C14.7132 9.01338 14.3599 8.82195 13.9457 8.68389L13.8079 9.09734ZM14.7173 9.59363C14.9631 9.79971 15.1421 10.0383 15.2585 10.31L15.6591 10.1384C15.514 9.79996 15.2921 9.50687 14.9974 9.25971L14.7173 9.59363ZM15.2606 10.3148C15.3862 10.5896 15.4501 10.8897 15.4501 11.2179H15.8859C15.8859 10.8313 15.8103 10.469 15.657 10.1336L15.2606 10.3148ZM15.4501 11.2179C15.4501 11.4695 15.4176 11.6907 15.3559 11.8836L15.7709 12.0165C15.8486 11.7736 15.8859 11.5066 15.8859 11.2179H15.4501ZM15.3536 11.8913C15.2978 12.0905 15.2186 12.272 15.1166 12.4368L15.4872 12.6662C15.6118 12.4648 15.707 12.2454 15.7732 12.0088L15.3536 11.8913ZM15.115 12.4394C15.0185 12.6003 14.9059 12.7491 14.7771 12.8859L15.0945 13.1846C15.2446 13.025 15.3761 12.8513 15.4888 12.6636L15.115 12.4394ZM14.7771 12.8859C14.642 13.0294 14.5076 13.1596 14.3739 13.2765L14.6609 13.6045C14.8062 13.4774 14.9507 13.3374 15.0945 13.1846L14.7771 12.8859ZM14.3731 13.2773C14.1449 13.4791 13.9625 13.6481 13.8273 13.7833L14.1355 14.0914C14.2617 13.9652 14.4367 13.8029 14.6618 13.6037L14.3731 13.2773ZM13.8273 13.7833C13.694 13.9165 13.5874 14.0319 13.5105 14.1281L13.8508 14.4004C13.9134 14.3222 14.0072 14.2197 14.1355 14.0914L13.8273 13.7833ZM13.5021 14.1393C13.4325 14.2387 13.3778 14.3419 13.3516 14.4467L13.7744 14.5524C13.7831 14.5178 13.8068 14.464 13.8592 14.3892L13.5021 14.1393ZM13.3535 14.4397C13.3307 14.5194 13.3189 14.6005 13.3189 14.6826H13.7548C13.7548 14.6426 13.7604 14.6018 13.7725 14.5594L13.3535 14.4397ZM13.3189 14.6826V14.8787H13.7548V14.6826H13.3189ZM13.5368 14.6608H11.5234V15.0966H13.5368V14.6608ZM11.7413 14.8787V14.3557H11.3055V14.8787H11.7413ZM12.5301 17.9687C12.2361 17.9687 11.9945 17.8717 11.7923 17.6767L11.4898 17.9904C11.7757 18.2661 12.1268 18.4045 12.5301 18.4045V17.9687ZM11.7979 17.6823C11.6029 17.4801 11.5059 17.2385 11.5059 16.9445H11.0701C11.0701 17.3478 11.2085 17.6989 11.4842 17.9848L11.7979 17.6823ZM11.5059 16.9445C11.5059 16.6506 11.6028 16.4149 11.7951 16.2226L11.487 15.9144C11.2086 16.1927 11.0701 16.5411 11.0701 16.9445H11.5059ZM11.7951 16.2226C11.9979 16.0199 12.2386 15.9203 12.5301 15.9203V15.4845C12.1243 15.4845 11.7723 15.629 11.487 15.9144L11.7951 16.2226ZM12.5301 15.9203C12.8215 15.9203 13.0563 16.0196 13.2492 16.2198L13.563 15.9172C13.2853 15.6293 12.936 15.4845 12.5301 15.4845V15.9203ZM13.2548 16.2254C13.455 16.4183 13.5543 16.6531 13.5543 16.9445H13.9901C13.9901 16.5386 13.8453 16.1893 13.5574 15.9116L13.2548 16.2254ZM13.5543 16.9445C13.5543 17.236 13.4547 17.4767 13.252 17.6795L13.5602 17.9876C13.8456 17.7023 13.9901 17.3503 13.9901 16.9445H13.5543ZM13.252 17.6795C13.0597 17.8718 12.824 17.9687 12.5301 17.9687V18.4045C12.9335 18.4045 13.2819 18.266 13.5602 17.9876L13.252 17.6795Z" fill="black"/>
</svg>
