<svg width="110" height="48" viewBox="0 0 110 48" fill="none" xmlns="http://www.w3.org/2000/svg">
<g clip-path="url(#clip0_4001_2166)">
<path d="M1.27228 17.7912H5.19093V22.8041H10.331V17.7912H14.2496V31.2775H10.331V26.0102H5.19093V31.2775H1.27228V17.7912ZM23.2918 31.6083C22.3079 31.6083 21.3834 31.4726 20.5182 31.2012C19.6701 30.9128 18.9321 30.4802 18.3045 29.9034C17.6768 29.3267 17.1849 28.6057 16.8286 27.7405C16.4724 26.8584 16.2943 25.8321 16.2943 24.6616V24.1527C16.2943 23.0331 16.4639 22.0577 16.8032 21.2264C17.1594 20.3952 17.6344 19.6997 18.2281 19.1399C18.8388 18.5801 19.5513 18.1644 20.3656 17.893C21.1968 17.6046 22.0874 17.4604 23.0374 17.4604C25.2596 17.4604 26.9391 18.0372 28.0757 19.1908C29.2123 20.3273 29.7806 21.9813 29.7806 24.1527V25.5522H20.3147C20.3316 26.0781 20.4249 26.5276 20.5946 26.9008C20.7642 27.2571 20.9848 27.5539 21.2562 27.7914C21.5276 28.0289 21.833 28.207 22.1722 28.3258C22.5285 28.4276 22.9017 28.4785 23.2918 28.4785C24.0383 28.4785 24.6235 28.3682 25.0476 28.1477C25.4887 27.9102 25.777 27.5964 25.9128 27.2062H29.5261C29.2547 28.682 28.5846 29.7847 27.5159 30.5141C26.4471 31.2436 25.0391 31.6083 23.2918 31.6083ZM23.1646 20.5648C22.8084 20.5648 22.4606 20.6072 22.1213 20.6921C21.799 20.7769 21.5022 20.9211 21.2307 21.1246C20.9763 21.3112 20.7642 21.5572 20.5946 21.8626C20.4419 22.1679 20.3571 22.5411 20.3401 22.9822H25.9382C25.9382 22.5072 25.8619 22.117 25.7092 21.8117C25.5565 21.5063 25.3529 21.2604 25.0985 21.0737C24.861 20.8871 24.5726 20.7599 24.2333 20.6921C23.8941 20.6072 23.5378 20.5648 23.1646 20.5648ZM31.8123 17.7912H36.5706L39.7768 24.4835L42.983 17.7912H47.5886V31.2775H43.8736V23.0076L40.9727 28.7329H38.4282L35.5273 23.0076V31.2775H31.8123V17.7912ZM56.615 31.6083C55.6311 31.6083 54.7066 31.4726 53.8414 31.2012C52.9932 30.9128 52.2553 30.4802 51.6276 29.9034C51 29.3267 50.508 28.6057 50.1518 27.7405C49.7955 26.8584 49.6174 25.8321 49.6174 24.6616V24.1527C49.6174 23.0331 49.7871 22.0577 50.1263 21.2264C50.4826 20.3952 50.9576 19.6997 51.5513 19.1399C52.162 18.5801 52.8745 18.1644 53.6887 17.893C54.52 17.6046 55.4106 17.4604 56.3605 17.4604C58.5828 17.4604 60.2622 18.0372 61.3988 19.1908C62.5354 20.3273 63.1037 21.9813 63.1037 24.1527V25.5522H53.6378C53.6548 26.0781 53.7481 26.5276 53.9178 26.9008C54.0874 27.2571 54.3079 27.5539 54.5793 27.7914C54.8508 28.0289 55.1561 28.207 55.4954 28.3258C55.8516 28.4276 56.2248 28.4785 56.615 28.4785C57.3614 28.4785 57.9467 28.3682 58.3708 28.1477C58.8118 27.9102 59.1002 27.5964 59.2359 27.2062H62.8492C62.5778 28.682 61.9077 29.7847 60.839 30.5141C59.7703 31.2436 58.3623 31.6083 56.615 31.6083ZM56.4878 20.5648C56.1315 20.5648 55.7838 20.6072 55.4445 20.6921C55.1222 20.7769 54.8253 20.9211 54.5539 21.1246C54.2994 21.3112 54.0874 21.5572 53.9178 21.8626C53.7651 22.1679 53.6803 22.5411 53.6633 22.9822H59.2614C59.2614 22.5072 59.185 22.117 59.0324 21.8117C58.8797 21.5063 58.6761 21.2604 58.4217 21.0737C58.1842 20.8871 57.8958 20.7599 57.5565 20.6921C57.2172 20.6072 56.861 20.5648 56.4878 20.5648ZM65.1354 17.7912H68.7487V19.6233C68.9183 19.3519 69.1304 19.089 69.3848 18.8345C69.6562 18.5631 69.9701 18.3256 70.3263 18.122C70.6826 17.9185 71.0812 17.7573 71.5223 17.6386C71.9633 17.5198 72.4383 17.4604 72.9472 17.4604C74.8472 17.4604 76.2891 18.0203 77.273 19.1399C78.2569 20.2595 78.7489 21.9304 78.7489 24.1527V24.6616C78.7489 25.8151 78.6132 26.8245 78.3417 27.6897C78.0703 28.5548 77.6801 29.2758 77.1712 29.8525C76.6623 30.4293 76.0516 30.8704 75.3391 31.1757C74.6267 31.4641 73.8293 31.6083 72.9472 31.6083C72.1839 31.6083 71.4544 31.4387 70.7589 31.0994C70.0803 30.7431 69.512 30.2342 69.054 29.5726V36.3667H65.1354V17.7912ZM72.0057 28.3767C72.7861 28.3767 73.4307 28.0629 73.9396 27.4352C74.4655 26.8075 74.7284 25.883 74.7284 24.6616V24.1527C74.7284 22.9822 74.474 22.117 73.9651 21.5572C73.4731 20.9804 72.82 20.6921 72.0057 20.6921C71.1745 20.6921 70.4705 20.955 69.8937 21.4809C69.3339 21.9898 69.054 22.7532 69.054 23.771V25.0433C69.054 26.112 69.3339 26.9348 69.8937 27.5115C70.4705 28.0883 71.1745 28.3767 72.0057 28.3767ZM88.704 26.5446C88.3138 26.7651 87.8643 26.9687 87.3554 27.1553C86.8465 27.3419 86.1849 27.4352 85.3706 27.4352C83.6572 27.4352 82.4019 27.0281 81.6046 26.2138C80.8073 25.3995 80.4087 24.1612 80.4087 22.4987V17.7912H84.3273V22.117C84.3273 22.8634 84.4885 23.3978 84.8108 23.7201C85.1331 24.0255 85.7014 24.1781 86.5157 24.1781C87.0924 24.1781 87.5674 24.1103 87.9406 23.9746C88.3138 23.8219 88.5683 23.6777 88.704 23.542V17.7912H92.6227V31.2775H88.704V26.5446Z" fill="white"/>
<path d="M94.6894 29.1945C91.0106 34.2341 86.8431 38.1782 83.0837 40.4827C81.2037 41.6351 79.4317 42.3741 77.8782 42.6387C76.3252 42.9032 75.002 42.6925 74.0009 41.9617C73 41.2309 72.396 40.0347 72.1747 38.4751C71.9533 36.915 72.1171 35.002 72.6417 32.8603C73.6911 28.5775 76.1776 23.4062 79.8566 18.3665C83.5354 13.3269 87.7029 9.38291 91.4623 7.07834C93.3424 5.92588 95.1143 5.18703 96.6678 4.92245C98.2208 4.65794 99.544 4.86872 100.545 5.59944C101.546 6.33015 102.15 7.52629 102.371 9.08596C102.593 10.6462 102.429 12.5591 101.904 14.7008C100.855 18.9837 98.3684 24.1548 94.6894 29.1945Z" stroke="white" stroke-width="0.721816"/>
<path d="M79.8134 29.5687C76.0496 24.5922 73.4756 19.4639 72.3538 15.1996C71.7927 13.0671 71.5965 11.1572 71.7914 9.59344C71.9862 8.03022 72.5698 6.82401 73.5583 6.07641C74.5467 5.32878 75.8661 5.09558 77.4234 5.33366C78.9811 5.57184 80.7655 6.28051 82.6647 7.40089C86.4627 9.64129 90.6965 13.5139 94.4606 18.4904C98.2245 23.4669 100.798 28.5952 101.92 32.8595C102.481 34.9919 102.678 36.9019 102.483 38.4658C102.288 40.0288 101.704 41.2351 100.716 41.9826C99.7274 42.7303 98.4079 42.9636 96.8507 42.7253C95.2929 42.4872 93.5085 41.7785 91.6094 40.6581C87.8113 38.4178 83.5775 34.5453 79.8134 29.5687Z" stroke="white" stroke-width="0.721816"/>
<path d="M87.3374 15.241C93.5824 15.241 99.2301 16.2922 103.311 17.9869C105.352 18.8343 106.996 19.84 108.126 20.95C109.257 22.0595 109.867 23.2652 109.867 24.5181C109.867 25.7709 109.257 26.9765 108.126 28.086C106.996 29.1961 105.352 30.2018 103.311 31.0494C99.2301 32.744 93.5824 33.7952 87.3374 33.7952C81.0923 33.7952 75.4446 32.744 71.3633 31.0494C69.3223 30.2018 67.6792 29.1961 66.5484 28.086C65.4182 26.9765 64.8073 25.7709 64.8073 24.5181C64.8073 23.2652 65.4182 22.0595 66.5484 20.95C67.6792 19.84 69.3223 18.8343 71.3633 17.9869C75.4446 16.2922 81.0923 15.241 87.3374 15.241Z" stroke="white" stroke-width="0.721816"/>
<path d="M75.1446 10.3373C77.56 10.3373 79.518 8.37924 79.518 5.96383C79.518 3.54841 77.56 1.59033 75.1446 1.59033C72.7291 1.59033 70.7711 3.54841 70.7711 5.96383C70.7711 8.37924 72.7291 10.3373 75.1446 10.3373Z" fill="#5005F2"/>
<path d="M75.1446 46.3854C77.56 46.3854 79.518 44.4274 79.518 42.0119C79.518 39.5964 77.56 37.6384 75.1446 37.6384C72.7291 37.6384 70.7711 39.5964 70.7711 42.0119C70.7711 44.4274 72.7291 46.3854 75.1446 46.3854Z" fill="#0066FF"/>
<path d="M99.6626 10.3373C102.005 10.3373 103.904 8.37924 103.904 5.96383C103.904 3.54841 102.005 1.59033 99.6626 1.59033C97.3203 1.59033 95.4216 3.54841 95.4216 5.96383C95.4216 8.37924 97.3203 10.3373 99.6626 10.3373Z" fill="#E7286C"/>
<path d="M99.6626 46.3854C102.005 46.3854 103.904 44.4274 103.904 42.0119C103.904 39.5964 102.005 37.6384 99.6626 37.6384C97.3203 37.6384 95.4216 39.5964 95.4216 42.0119C95.4216 44.4274 97.3203 46.3854 99.6626 46.3854Z" fill="#00A99D"/>
</g>
<defs>
<clipPath id="clip0_4001_2166">
<rect width="110" height="47.7108" fill="white"/>
</clipPath>
</defs>
</svg>
