<svg width="31" height="20" viewBox="0 0 31 20" fill="none" xmlns="http://www.w3.org/2000/svg">
<path d="M5.00745 8.9707H25.8553V15.2528C25.8553 16.2467 25.4605 17.1998 24.7578 17.9025C24.055 18.6053 23.1019 19.0001 22.1081 19.0001H8.75909C7.76526 19.0001 6.81214 18.6053 6.1094 17.9025C5.40665 17.1998 5.01185 16.2467 5.01185 15.2528V8.9707H5.00745Z" fill="#49D2A4" stroke="black" stroke-width="0.440852" stroke-miterlimit="10"/>
<path d="M5.01196 8.93099L1.48515 5.3689C1.27876 5.20955 1.12748 4.98953 1.05258 4.73977C0.977678 4.49 0.982916 4.22304 1.06756 3.9764C1.1522 3.72977 1.312 3.51585 1.52449 3.36472C1.73698 3.21358 1.99148 3.13283 2.25223 3.1338H7.07074C7.33513 3.13343 7.59285 3.21675 7.80696 3.37185L15.4337 8.97067L5.01196 8.93099Z" fill="#49D2A4" stroke="black" stroke-width="0.440852" stroke-miterlimit="10"/>
<path d="M26.1376 8.93099L29.6644 5.3689C29.8708 5.20955 30.0221 4.98953 30.097 4.73977C30.1719 4.49 30.1667 4.22304 30.082 3.9764C29.9974 3.72977 29.8376 3.51585 29.6251 3.36472C29.4126 3.21358 29.1581 3.13283 28.8973 3.1338H24.0788C23.8144 3.13343 23.5567 3.21675 23.3426 3.37185L15.7159 8.97067L26.1376 8.93099Z" fill="#49D2A4" stroke="black" stroke-width="0.440852" stroke-miterlimit="10"/>
<path d="M7.98767 12.3301C15.1295 11.7835 15.7334 4.62402 15.7334 4.62402C15.7334 4.62402 15.7334 11.7526 22.9943 12.361C22.9943 12.361 16.8532 12.361 15.7334 18.3036C15.7599 18.3213 14.5431 11.422 7.98767 12.3301Z" fill="white" stroke="#010102" stroke-width="0.440852" stroke-miterlimit="10"/>
<path d="M7.98767 4.8797C10.214 4.70776 10.4035 2.47705 10.4035 2.47705C10.4035 2.47705 10.4035 4.68131 12.6651 4.88851C12.6651 4.88851 10.7518 4.88851 10.4035 6.74449C10.4124 6.75331 10.0332 4.60196 7.98767 4.8797Z" fill="white" stroke="#010102" stroke-width="0.440852" stroke-miterlimit="10"/>
<path d="M16.3419 3.40265C18.5726 3.23071 18.7577 1 18.7577 1C18.7577 1 18.7577 3.20426 21.0237 3.41146C21.0237 3.41146 19.106 3.41147 18.7577 5.26745C18.7665 5.27627 18.3918 3.12491 16.3419 3.40265Z" fill="white" stroke="#010102" stroke-width="0.440852" stroke-miterlimit="10"/>
</svg>
