<svg width="27" height="23" viewBox="0 0 27 23" fill="none" xmlns="http://www.w3.org/2000/svg">
<path d="M16.2684 22.4635C22.1953 22.4635 27.0001 17.6587 27.0001 11.7317C27.0001 5.80476 22.1953 1 16.2684 1C10.3414 1 5.53662 5.80476 5.53662 11.7317C5.53662 17.6587 10.3414 22.4635 16.2684 22.4635Z" fill="#49D2A4"/>
<path d="M17.8798 3.31728C20.0312 3.15146 20.2098 1 20.2098 1C20.2098 1 20.2098 3.12594 22.3953 3.32578C22.3953 3.32578 20.5457 3.32578 20.2098 5.11157C20.2183 5.12008 19.8569 3.04941 17.8798 3.31728Z" fill="#61BB9A" stroke="black" stroke-width="0.425188" stroke-miterlimit="10"/>
<path d="M6.22934 6.93956C6.01132 6.93562 5.7963 6.99079 5.60712 7.09921C5.41793 7.20763 5.26163 7.36525 5.15481 7.55535C5.04799 7.74544 4.99465 7.96092 5.00042 8.17889C5.0062 8.39687 5.07089 8.60921 5.18762 8.79338C7.4071 12.2544 11.4039 19.236 14.4312 19.236C17.8327 19.236 16.9356 16.2172 17.2502 15.269C17.5436 14.3931 18.2281 14.138 18.8574 14.814L20.9111 18.696C21.024 18.8179 21.1607 18.9151 21.3129 18.9817C21.4651 19.0483 21.6294 19.0827 21.7955 19.0829H24.4104C24.6238 19.0825 24.8333 19.0255 25.0175 18.9177C25.2017 18.81 25.3541 18.6553 25.4591 18.4695C25.5641 18.2837 25.618 18.0734 25.6153 17.86C25.6125 17.6466 25.5533 17.4377 25.4436 17.2546L22.8925 13.0027L25.9708 8.07056C26.0583 7.89344 26.1011 7.69754 26.0953 7.50006C26.0895 7.30257 26.0353 7.10953 25.9375 6.93786C25.8397 6.76619 25.7013 6.62113 25.5343 6.51542C25.3674 6.40971 25.1771 6.34657 24.9801 6.33154L21.4383 6.56115L18.9637 11.3615C18.4365 12.3522 17.382 12.1439 17.1482 11.0469L17.7859 7.51356C17.7292 7.24353 17.581 7.00134 17.3665 6.82784C17.1519 6.65433 16.8841 6.56014 16.6082 6.56115H12.4073C12.1981 6.56054 11.9923 6.6145 11.8103 6.71771C11.6283 6.82093 11.4763 6.96982 11.3694 7.1497C11.2625 7.32958 11.2044 7.53422 11.2007 7.74343C11.1971 7.95264 11.2481 8.15919 11.3486 8.34269L13.2322 8.24914L12.807 10.9533C12.807 12.1651 11.6377 12.6201 10.9999 11.5826L8.53386 6.98634L6.22934 6.93956Z" fill="white" stroke="black" stroke-width="0.425188" stroke-miterlimit="10"/>
</svg>
