<svg width="25" height="24" viewBox="0 0 25 24" fill="none" xmlns="http://www.w3.org/2000/svg">
<path d="M13.1904 23.9159C18.7527 23.9159 23.2618 19.4067 23.2618 13.8444C23.2618 8.28209 18.7527 3.77295 13.1904 3.77295C7.62804 3.77295 3.1189 8.28209 3.1189 13.8444C3.1189 19.4067 7.62804 23.9159 13.1904 23.9159Z" fill="#49D2A4"/>
<path d="M15.3173 4.05721C18.6971 2.3374 21.6419 1.99024 22.9827 3.4427C25.1135 5.76105 22.3602 11.7664 16.8297 16.862C11.2991 21.9576 5.08627 24.2081 2.95148 21.8937C1.8342 20.6967 2.05765 18.4501 3.32257 15.8724" stroke="black" stroke-width="0.399028" stroke-miterlimit="10"/>
<path d="M17.6235 9.34766H8.21042C6.96088 9.34766 5.94794 10.3606 5.94794 11.6101V16.6698C5.94794 17.9194 6.96088 18.9323 8.21042 18.9323H17.6235C18.873 18.9323 19.886 17.9194 19.886 16.6698V11.6101C19.886 10.3606 18.873 9.34766 17.6235 9.34766Z" fill="white" stroke="black" stroke-width="0.399028" stroke-miterlimit="10"/>
<path d="M1 21.9052C2.99514 21.7495 3.18667 19.7305 3.18667 19.7305C3.18667 19.7305 3.18667 21.7256 5.23767 21.9132C5.23767 21.9132 3.5019 21.9131 3.18667 23.5891C3.19465 23.597 2.85548 21.6498 1 21.9052Z" fill="#E7286C" stroke="black" stroke-width="0.399028" stroke-miterlimit="10"/>
<path d="M19.7662 3.1747C21.7813 3.02306 21.9529 1 21.9529 1C21.9529 1 21.9529 2.99514 23.9999 3.18268C23.9999 3.18268 22.2681 3.18268 21.9529 4.86259C21.9609 4.87057 21.6217 2.92331 19.7662 3.1747Z" fill="#E7286C" stroke="black" stroke-width="0.399028" stroke-miterlimit="10"/>
<path d="M16.199 13.8166L11.3628 11.0234V16.6098L16.199 13.8166Z" fill="#49D2A4" stroke="black" stroke-width="0.399028" stroke-miterlimit="10"/>
</svg>
