<svg width="25" height="31" viewBox="0 0 25 31" fill="none" xmlns="http://www.w3.org/2000/svg">
<path d="M13.5 26.6699C19.299 26.6699 24 21.9689 24 16.1699C24 10.3709 19.299 5.66992 13.5 5.66992C7.70102 5.66992 3 10.3709 3 16.1699C3 21.9689 7.70102 26.6699 13.5 26.6699Z" fill="#49D2A4"/>
<path d="M20 24.2672C22.08 24.105 22.2797 22 22.2797 22C22.2797 22 22.2797 24.08 24.4138 24.2756C24.4138 24.2756 22.6084 24.2756 22.2797 26.027C22.288 26.0353 21.9303 24.0052 20 24.2672Z" fill="#3463AC" stroke="#010102" stroke-width="0.395206" stroke-miterlimit="10"/>
<path d="M1 11.2672C3.10083 11.1092 3.27972 9 3.27972 9C3.27972 9 3.27971 11.1008 5.41382 11.2756C5.41382 11.2756 3.60836 11.2756 3.27972 13.027C3.28804 13.0353 2.93027 11.0052 1 11.2672Z" fill="#3463AC" stroke="#010102" stroke-width="0.395206" stroke-miterlimit="10"/>
<path d="M10.9286 15.2605H9.48215V12.223H10.9286V11.6203C10.9286 11.0417 11.009 10.5274 11.1697 10.0774C11.3304 9.62741 11.6036 9.24973 11.9893 8.94437C12.3751 8.62293 12.8813 8.38186 13.5081 8.22114C14.151 8.06042 14.9385 7.98006 15.8707 7.98006C16.1117 7.98006 16.4091 7.9881 16.7626 8.00417C17.1323 8.00417 17.4376 8.02024 17.6787 8.05239V11.1382C17.4376 11.106 17.1725 11.0899 16.8832 11.0899C16.61 11.0739 16.3528 11.0658 16.1117 11.0658C15.5492 11.0658 15.1635 11.1542 14.9546 11.331C14.7456 11.4917 14.6412 11.7087 14.6412 11.9819V12.223H17.4376V15.2605H14.6412V25H10.9286V15.2605Z" fill="white"/>
<path d="M10.9286 15.2605H11.1262V15.0629H10.9286V15.2605ZM9.48215 15.2605H9.28455V15.4581H9.48215V15.2605ZM9.48215 12.223V12.0254H9.28455V12.223H9.48215ZM10.9286 12.223V12.4206H11.1262V12.223H10.9286ZM11.9893 8.94437L12.112 9.09935L12.1158 9.09617L11.9893 8.94437ZM13.5081 8.22114L13.4602 8.02943L13.459 8.02973L13.5081 8.22114ZM16.7626 8.00417L16.7537 8.20177H16.7626V8.00417ZM17.6787 8.05239H17.8763V7.87938L17.7048 7.85652L17.6787 8.05239ZM17.6787 11.1382L17.6526 11.334L17.8763 11.3639V11.1382H17.6787ZM16.8832 11.0899L16.8715 11.2875H16.8832V11.0899ZM14.9546 11.331L15.0752 11.4878L15.0822 11.4819L14.9546 11.331ZM14.6412 12.223H14.4436V12.4206H14.6412V12.223ZM17.4376 12.223H17.6352V12.0254H17.4376V12.223ZM17.4376 15.2605V15.4581H17.6352V15.2605H17.4376ZM14.6412 15.2605V15.0629H14.4436V15.2605H14.6412ZM14.6412 25V25.1976H14.8388V25H14.6412ZM10.9286 25H10.731V25.1976H10.9286V25ZM10.9286 15.0629H9.48215V15.4581H10.9286V15.0629ZM9.67975 15.2605V12.223H9.28455V15.2605H9.67975ZM9.48215 12.4206H10.9286V12.0254H9.48215V12.4206ZM11.1262 12.223V11.6203H10.731V12.223H11.1262ZM11.1262 11.6203C11.1262 11.0597 11.2041 10.5686 11.3558 10.1439L10.9836 10.011C10.8138 10.4863 10.731 11.0237 10.731 11.6203H11.1262ZM11.3558 10.1439C11.5037 9.72979 11.7544 9.38241 12.112 9.0993L11.8667 8.78944C11.4529 9.11705 11.1571 9.52504 10.9836 10.011L11.3558 10.1439ZM12.1158 9.09617C12.4735 8.79813 12.9509 8.56801 13.5572 8.41255L13.459 8.02973C12.8117 8.19571 12.2766 8.44773 11.8628 8.79256L12.1158 9.09617ZM13.556 8.41284C14.1783 8.25727 14.9487 8.17767 15.8707 8.17767V7.78246C14.9283 7.78246 14.1236 7.86357 13.4602 8.02944L13.556 8.41284ZM15.8707 8.17767C16.1077 8.17767 16.4018 8.18558 16.7537 8.20157L16.7716 7.80677C16.4163 7.79062 16.1157 7.78246 15.8707 7.78246V8.17767ZM16.7626 8.20177C17.1275 8.20177 17.4234 8.2177 17.6526 8.24826L17.7048 7.85652C17.4519 7.82279 17.137 7.80657 16.7626 7.80657V8.20177ZM17.4811 8.05239V11.1382H17.8763V8.05239H17.4811ZM17.7048 10.9423C17.4537 10.9088 17.1796 10.8923 16.8832 10.8923V11.2875C17.1653 11.2875 17.4216 11.3032 17.6526 11.334L17.7048 10.9423ZM16.8948 10.8927C16.6182 10.8764 16.3572 10.8682 16.1117 10.8682V11.2634C16.3485 11.2634 16.6017 11.2713 16.8716 11.2872L16.8948 10.8927ZM16.1117 10.8682C15.5438 10.8682 15.0938 10.9544 14.8269 11.1802L15.0822 11.4819C15.2332 11.3541 15.5547 11.2634 16.1117 11.2634V10.8682ZM14.8341 11.1744C14.5745 11.3741 14.4436 11.65 14.4436 11.9819H14.8388C14.8388 11.7674 14.9168 11.6094 15.075 11.4876L14.8341 11.1744ZM14.4436 11.9819V12.223H14.8388V11.9819H14.4436ZM14.6412 12.4206H17.4376V12.0254H14.6412V12.4206ZM17.24 12.223V15.2605H17.6352V12.223H17.24ZM17.4376 15.0629H14.6412V15.4581H17.4376V15.0629ZM14.4436 15.2605V25H14.8388V15.2605H14.4436ZM14.6412 24.8024H10.9286V25.1976H14.6412V24.8024ZM11.1262 25V15.2605H10.731V25H11.1262Z" fill="black"/>
</svg>
