<svg width="1920" height="330" viewBox="0 0 1920 330" fill="none" xmlns="http://www.w3.org/2000/svg">
<g clip-path="url(#clip0_3465_2979)">
<circle cx="88" cy="120" r="114" fill="#006AFF"/>
<circle cx="356" cy="336" r="326" fill="#49D2A4"/>
<line x1="56.6766" y1="96.1531" x2="313.972" y2="356.452" stroke="white" stroke-opacity="0.3" stroke-width="4" stroke-linecap="round"/>
<line x1="40.6766" y1="106.003" x2="305.002" y2="373.413" stroke="white" stroke-opacity="0.3" stroke-width="4" stroke-linecap="round"/>
<line x1="26.6766" y1="116.016" x2="294.517" y2="386.983" stroke="white" stroke-opacity="0.3" stroke-width="4" stroke-linecap="round"/>
<line x1="69.6766" y1="84.1531" x2="323.865" y2="341.308" stroke="white" stroke-opacity="0.3" stroke-width="4" stroke-linecap="round"/>
<line x1="88.6766" y1="78.1531" x2="331.912" y2="324.228" stroke="white" stroke-opacity="0.3" stroke-width="4" stroke-linecap="round"/>
<line x1="107.677" y1="72.2352" x2="336.852" y2="304.086" stroke="white" stroke-opacity="0.3" stroke-width="4" stroke-linecap="round"/>
<line x1="126.677" y1="66.4578" x2="341.792" y2="284.084" stroke="white" stroke-opacity="0.3" stroke-width="4" stroke-linecap="round"/>
<line x1="149.677" y1="65.6805" x2="343.702" y2="261.971" stroke="white" stroke-opacity="0.3" stroke-width="4" stroke-linecap="round"/>
<line x1="172.677" y1="64.0164" x2="345.613" y2="238.971" stroke="white" stroke-opacity="0.3" stroke-width="4" stroke-linecap="round"/>
<line x1="202.677" y1="68.3523" x2="340.463" y2="207.747" stroke="white" stroke-opacity="0.3" stroke-width="4" stroke-linecap="round"/>
<line x1="282.322" y1="395.221" x2="11.8517" y2="126.88" stroke="white" stroke-opacity="0.3" stroke-width="4" stroke-linecap="round"/>
<line x1="268.322" y1="407.221" x2="1.40108" y2="142.402" stroke="white" stroke-opacity="0.3" stroke-width="4" stroke-linecap="round"/>
<line x1="251.444" y1="415.351" x2="-5.2401" y2="160.688" stroke="white" stroke-opacity="0.3" stroke-width="4" stroke-linecap="round"/>
<line x1="232.504" y1="421.536" x2="-13.1202" y2="177.846" stroke="white" stroke-opacity="0.3" stroke-width="4" stroke-linecap="round"/>
<line x1="213.563" y1="427.639" x2="-17.8636" y2="198.035" stroke="white" stroke-opacity="0.3" stroke-width="4" stroke-linecap="round"/>
<line x1="194.62" y1="433.602" x2="-22.6083" y2="218.084" stroke="white" stroke-opacity="0.3" stroke-width="4" stroke-linecap="round"/>
<line x1="171.628" y1="434.603" x2="-24.3029" y2="240.215" stroke="white" stroke-opacity="0.3" stroke-width="4" stroke-linecap="round"/>
<line x1="148.646" y1="436.492" x2="-25.9888" y2="263.233" stroke="white" stroke-opacity="0.3" stroke-width="4" stroke-linecap="round"/>
<line x1="118.605" y1="432.449" x2="-20.5349" y2="294.405" stroke="white" stroke-opacity="0.3" stroke-width="4" stroke-linecap="round"/>
<circle cx="1614" cy="331" r="326" fill="#49D2A4"/>
<line x1="1889.68" y1="218.202" x2="1663.9" y2="441.374" stroke="white" stroke-opacity="0.2" stroke-width="4" stroke-linecap="round"/>
<line x1="1881.12" y1="204.301" x2="1649.16" y2="433.581" stroke="white" stroke-opacity="0.2" stroke-width="4" stroke-linecap="round"/>
<line x1="1872.42" y1="192.137" x2="1637.38" y2="424.471" stroke="white" stroke-opacity="0.2" stroke-width="4" stroke-linecap="round"/>
<line x1="1900.1" y1="229.496" x2="1677.06" y2="449.969" stroke="white" stroke-opacity="0.2" stroke-width="4" stroke-linecap="round"/>
<line x1="1905.32" y1="246.004" x2="1691.9" y2="456.961" stroke="white" stroke-opacity="0.2" stroke-width="4" stroke-linecap="round"/>
<line x1="1910.46" y1="262.511" x2="1709.4" y2="461.253" stroke="white" stroke-opacity="0.2" stroke-width="4" stroke-linecap="round"/>
<line x1="1915.48" y1="279.019" x2="1726.77" y2="465.545" stroke="white" stroke-opacity="0.2" stroke-width="4" stroke-linecap="round"/>
<line x1="1916.15" y1="299.001" x2="1745.99" y2="467.204" stroke="white" stroke-opacity="0.2" stroke-width="4" stroke-linecap="round"/>
<line x1="1917.6" y1="318.984" x2="1765.97" y2="468.864" stroke="white" stroke-opacity="0.2" stroke-width="4" stroke-linecap="round"/>
<line x1="1629.85" y1="413.503" x2="1862.61" y2="178.888" stroke="white" stroke-opacity="0.2" stroke-width="4" stroke-linecap="round"/>
<line x1="1619.42" y1="401.34" x2="1849.13" y2="169.808" stroke="white" stroke-opacity="0.2" stroke-width="4" stroke-linecap="round"/>
<line x1="1612.36" y1="386.676" x2="1833.24" y2="164.038" stroke="white" stroke-opacity="0.2" stroke-width="4" stroke-linecap="round"/>
<line x1="1606.98" y1="370.22" x2="1818.33" y2="157.192" stroke="white" stroke-opacity="0.2" stroke-width="4" stroke-linecap="round"/>
<line x1="1601.68" y1="353.764" x2="1800.79" y2="153.07" stroke="white" stroke-opacity="0.2" stroke-width="4" stroke-linecap="round"/>
<line x1="1596.5" y1="337.306" x2="1783.37" y2="148.948" stroke="white" stroke-opacity="0.2" stroke-width="4" stroke-linecap="round"/>
<line x1="1595.63" y1="317.331" x2="1764.15" y2="147.476" stroke="white" stroke-opacity="0.2" stroke-width="4" stroke-linecap="round"/>
<line x1="1593.99" y1="297.363" x2="1744.15" y2="146.011" stroke="white" stroke-opacity="0.2" stroke-width="4" stroke-linecap="round"/>
<line x1="1597.5" y1="271.263" x2="1717.07" y2="150.75" stroke="white" stroke-opacity="0.2" stroke-width="4" stroke-linecap="round"/>
<line x1="1605.53" y1="242.513" x2="1682.26" y2="165.173" stroke="white" stroke-opacity="0.2" stroke-width="4" stroke-linecap="round"/>
<line x1="1614.27" y1="212.792" x2="1654.28" y2="172.458" stroke="white" stroke-opacity="0.2" stroke-width="4" stroke-linecap="round"/>
<path d="M1475.04 266.753C1475.47 264.612 1478.53 264.612 1478.96 266.753L1481.83 281.029C1481.99 281.814 1482.6 282.43 1483.38 282.593L1497.58 285.542C1499.7 285.983 1499.7 289.017 1497.58 289.458L1483.38 292.407C1482.6 292.57 1481.99 293.186 1481.83 293.971L1478.96 308.247C1478.53 310.388 1475.47 310.388 1475.04 308.247L1472.17 293.971C1472.01 293.186 1471.4 292.57 1470.62 292.407L1456.42 289.458C1454.3 289.017 1454.3 285.983 1456.42 285.542L1470.62 282.593C1471.4 282.43 1472.01 281.814 1472.17 281.029L1475.04 266.753Z" fill="#006AFF"/>
</g>
<defs>
<clipPath id="clip0_3465_2979">
<rect width="1920" height="330" fill="white"/>
</clipPath>
</defs>
</svg>
